<mxfile host="Electron" agent="Mozilla/5.0 (Windows NT 10.0; Win64; x64) AppleWebKit/537.36 (KHTML, like Gecko) draw.io/24.7.17 Chrome/128.0.6613.36 Electron/32.0.1 Safari/537.36" version="24.7.17">
  <diagram id="R2lEEEUBdFMjLlhIrx00" name="Page-1">
    <mxGraphModel dx="3058" dy="1762" grid="0" gridSize="10" guides="1" tooltips="1" connect="1" arrows="1" fold="1" page="1" pageScale="1" pageWidth="850" pageHeight="1100" math="0" shadow="0" extFonts="Permanent Marker^https://fonts.googleapis.com/css?family=Permanent+Marker">
      <root>
        <mxCell id="0" />
        <mxCell id="1" parent="0" />
        <mxCell id="C-vyLk0tnHw3VtMMgP7b-2" value="Profile" style="shape=table;startSize=30;container=1;collapsible=1;childLayout=tableLayout;fixedRows=1;rowLines=0;fontStyle=1;align=center;resizeLast=1;" parent="1" vertex="1">
          <mxGeometry x="510" y="50" width="250" height="250" as="geometry" />
        </mxCell>
        <mxCell id="C-vyLk0tnHw3VtMMgP7b-3" value="" style="shape=partialRectangle;collapsible=0;dropTarget=0;pointerEvents=0;fillColor=none;points=[[0,0.5],[1,0.5]];portConstraint=eastwest;top=0;left=0;right=0;bottom=1;" parent="C-vyLk0tnHw3VtMMgP7b-2" vertex="1">
          <mxGeometry y="30" width="250" height="30" as="geometry" />
        </mxCell>
        <mxCell id="C-vyLk0tnHw3VtMMgP7b-4" value="PK" style="shape=partialRectangle;overflow=hidden;connectable=0;fillColor=none;top=0;left=0;bottom=0;right=0;fontStyle=1;" parent="C-vyLk0tnHw3VtMMgP7b-3" vertex="1">
          <mxGeometry width="30" height="30" as="geometry">
            <mxRectangle width="30" height="30" as="alternateBounds" />
          </mxGeometry>
        </mxCell>
        <mxCell id="C-vyLk0tnHw3VtMMgP7b-5" value="profile_id int(11) not null" style="shape=partialRectangle;overflow=hidden;connectable=0;fillColor=none;top=0;left=0;bottom=0;right=0;align=left;spacingLeft=6;fontStyle=5;" parent="C-vyLk0tnHw3VtMMgP7b-3" vertex="1">
          <mxGeometry x="30" width="220" height="30" as="geometry">
            <mxRectangle width="220" height="30" as="alternateBounds" />
          </mxGeometry>
        </mxCell>
        <mxCell id="C-vyLk0tnHw3VtMMgP7b-6" value="" style="shape=partialRectangle;collapsible=0;dropTarget=0;pointerEvents=0;fillColor=none;points=[[0,0.5],[1,0.5]];portConstraint=eastwest;top=0;left=0;right=0;bottom=0;" parent="C-vyLk0tnHw3VtMMgP7b-2" vertex="1">
          <mxGeometry y="60" width="250" height="30" as="geometry" />
        </mxCell>
        <mxCell id="C-vyLk0tnHw3VtMMgP7b-7" value="FK" style="shape=partialRectangle;overflow=hidden;connectable=0;fillColor=none;top=0;left=0;bottom=0;right=0;" parent="C-vyLk0tnHw3VtMMgP7b-6" vertex="1">
          <mxGeometry width="30" height="30" as="geometry">
            <mxRectangle width="30" height="30" as="alternateBounds" />
          </mxGeometry>
        </mxCell>
        <mxCell id="C-vyLk0tnHw3VtMMgP7b-8" value="account_id int(11) not null" style="shape=partialRectangle;overflow=hidden;connectable=0;fillColor=none;top=0;left=0;bottom=0;right=0;align=left;spacingLeft=6;" parent="C-vyLk0tnHw3VtMMgP7b-6" vertex="1">
          <mxGeometry x="30" width="220" height="30" as="geometry">
            <mxRectangle width="220" height="30" as="alternateBounds" />
          </mxGeometry>
        </mxCell>
        <mxCell id="C-vyLk0tnHw3VtMMgP7b-9" value="" style="shape=partialRectangle;collapsible=0;dropTarget=0;pointerEvents=0;fillColor=none;points=[[0,0.5],[1,0.5]];portConstraint=eastwest;top=0;left=0;right=0;bottom=0;" parent="C-vyLk0tnHw3VtMMgP7b-2" vertex="1">
          <mxGeometry y="90" width="250" height="30" as="geometry" />
        </mxCell>
        <mxCell id="C-vyLk0tnHw3VtMMgP7b-10" value="" style="shape=partialRectangle;overflow=hidden;connectable=0;fillColor=none;top=0;left=0;bottom=0;right=0;" parent="C-vyLk0tnHw3VtMMgP7b-9" vertex="1">
          <mxGeometry width="30" height="30" as="geometry">
            <mxRectangle width="30" height="30" as="alternateBounds" />
          </mxGeometry>
        </mxCell>
        <mxCell id="C-vyLk0tnHw3VtMMgP7b-11" value="profile_name varchar(255) not null" style="shape=partialRectangle;overflow=hidden;connectable=0;fillColor=none;top=0;left=0;bottom=0;right=0;align=left;spacingLeft=6;" parent="C-vyLk0tnHw3VtMMgP7b-9" vertex="1">
          <mxGeometry x="30" width="220" height="30" as="geometry">
            <mxRectangle width="220" height="30" as="alternateBounds" />
          </mxGeometry>
        </mxCell>
        <mxCell id="xZmK3IjfuJ7G6EqLBc_R-38" value="" style="shape=tableRow;horizontal=0;startSize=0;swimlaneHead=0;swimlaneBody=0;fillColor=none;collapsible=0;dropTarget=0;points=[[0,0.5],[1,0.5]];portConstraint=eastwest;top=0;left=0;right=0;bottom=0;" parent="C-vyLk0tnHw3VtMMgP7b-2" vertex="1">
          <mxGeometry y="120" width="250" height="30" as="geometry" />
        </mxCell>
        <mxCell id="xZmK3IjfuJ7G6EqLBc_R-39" value="" style="shape=partialRectangle;connectable=0;fillColor=none;top=0;left=0;bottom=0;right=0;editable=1;overflow=hidden;" parent="xZmK3IjfuJ7G6EqLBc_R-38" vertex="1">
          <mxGeometry width="30" height="30" as="geometry">
            <mxRectangle width="30" height="30" as="alternateBounds" />
          </mxGeometry>
        </mxCell>
        <mxCell id="xZmK3IjfuJ7G6EqLBc_R-40" value="profile_image varchar(255) not null" style="shape=partialRectangle;connectable=0;fillColor=none;top=0;left=0;bottom=0;right=0;align=left;spacingLeft=6;overflow=hidden;" parent="xZmK3IjfuJ7G6EqLBc_R-38" vertex="1">
          <mxGeometry x="30" width="220" height="30" as="geometry">
            <mxRectangle width="220" height="30" as="alternateBounds" />
          </mxGeometry>
        </mxCell>
        <mxCell id="xZmK3IjfuJ7G6EqLBc_R-42" value="" style="shape=tableRow;horizontal=0;startSize=0;swimlaneHead=0;swimlaneBody=0;fillColor=none;collapsible=0;dropTarget=0;points=[[0,0.5],[1,0.5]];portConstraint=eastwest;top=0;left=0;right=0;bottom=0;" parent="C-vyLk0tnHw3VtMMgP7b-2" vertex="1">
          <mxGeometry y="150" width="250" height="30" as="geometry" />
        </mxCell>
        <mxCell id="xZmK3IjfuJ7G6EqLBc_R-43" value="" style="shape=partialRectangle;connectable=0;fillColor=none;top=0;left=0;bottom=0;right=0;editable=1;overflow=hidden;" parent="xZmK3IjfuJ7G6EqLBc_R-42" vertex="1">
          <mxGeometry width="30" height="30" as="geometry">
            <mxRectangle width="30" height="30" as="alternateBounds" />
          </mxGeometry>
        </mxCell>
        <mxCell id="xZmK3IjfuJ7G6EqLBc_R-44" value="profile_age int(11) not null" style="shape=partialRectangle;connectable=0;fillColor=none;top=0;left=0;bottom=0;right=0;align=left;spacingLeft=6;overflow=hidden;" parent="xZmK3IjfuJ7G6EqLBc_R-42" vertex="1">
          <mxGeometry x="30" width="220" height="30" as="geometry">
            <mxRectangle width="220" height="30" as="alternateBounds" />
          </mxGeometry>
        </mxCell>
        <mxCell id="Y_65aHJJYKN84D6p4-pK-11" value="" style="shape=tableRow;horizontal=0;startSize=0;swimlaneHead=0;swimlaneBody=0;fillColor=none;collapsible=0;dropTarget=0;points=[[0,0.5],[1,0.5]];portConstraint=eastwest;top=0;left=0;right=0;bottom=0;" parent="C-vyLk0tnHw3VtMMgP7b-2" vertex="1">
          <mxGeometry y="180" width="250" height="30" as="geometry" />
        </mxCell>
        <mxCell id="Y_65aHJJYKN84D6p4-pK-12" value="FK" style="shape=partialRectangle;connectable=0;fillColor=none;top=0;left=0;bottom=0;right=0;fontStyle=0;overflow=hidden;whiteSpace=wrap;html=1;" parent="Y_65aHJJYKN84D6p4-pK-11" vertex="1">
          <mxGeometry width="30" height="30" as="geometry">
            <mxRectangle width="30" height="30" as="alternateBounds" />
          </mxGeometry>
        </mxCell>
        <mxCell id="Y_65aHJJYKN84D6p4-pK-13" value="&lt;span style=&quot;text-wrap: nowrap;&quot;&gt;profile_lang int(11) not null&lt;/span&gt;" style="shape=partialRectangle;connectable=0;fillColor=none;top=0;left=0;bottom=0;right=0;align=left;spacingLeft=6;fontStyle=0;overflow=hidden;whiteSpace=wrap;html=1;" parent="Y_65aHJJYKN84D6p4-pK-11" vertex="1">
          <mxGeometry x="30" width="220" height="30" as="geometry">
            <mxRectangle width="220" height="30" as="alternateBounds" />
          </mxGeometry>
        </mxCell>
        <mxCell id="xZmK3IjfuJ7G6EqLBc_R-45" value="" style="shape=tableRow;horizontal=0;startSize=0;swimlaneHead=0;swimlaneBody=0;fillColor=none;collapsible=0;dropTarget=0;points=[[0,0.5],[1,0.5]];portConstraint=eastwest;top=0;left=0;right=0;bottom=0;" parent="C-vyLk0tnHw3VtMMgP7b-2" vertex="1">
          <mxGeometry y="210" width="250" height="30" as="geometry" />
        </mxCell>
        <mxCell id="xZmK3IjfuJ7G6EqLBc_R-46" value="" style="shape=partialRectangle;connectable=0;fillColor=none;top=0;left=0;bottom=0;right=0;editable=1;overflow=hidden;" parent="xZmK3IjfuJ7G6EqLBc_R-45" vertex="1">
          <mxGeometry width="30" height="30" as="geometry">
            <mxRectangle width="30" height="30" as="alternateBounds" />
          </mxGeometry>
        </mxCell>
        <mxCell id="xZmK3IjfuJ7G6EqLBc_R-47" value="profile_movies_preferred bit default 0" style="shape=partialRectangle;connectable=0;fillColor=none;top=0;left=0;bottom=0;right=0;align=left;spacingLeft=6;overflow=hidden;" parent="xZmK3IjfuJ7G6EqLBc_R-45" vertex="1">
          <mxGeometry x="30" width="220" height="30" as="geometry">
            <mxRectangle width="220" height="30" as="alternateBounds" />
          </mxGeometry>
        </mxCell>
        <mxCell id="C-vyLk0tnHw3VtMMgP7b-13" value="Subscription" style="shape=table;startSize=30;container=1;collapsible=1;childLayout=tableLayout;fixedRows=1;rowLines=0;fontStyle=1;align=center;resizeLast=1;" parent="1" vertex="1">
          <mxGeometry x="-472" y="-190" width="330" height="130" as="geometry" />
        </mxCell>
        <mxCell id="C-vyLk0tnHw3VtMMgP7b-14" value="" style="shape=partialRectangle;collapsible=0;dropTarget=0;pointerEvents=0;fillColor=none;points=[[0,0.5],[1,0.5]];portConstraint=eastwest;top=0;left=0;right=0;bottom=1;" parent="C-vyLk0tnHw3VtMMgP7b-13" vertex="1">
          <mxGeometry y="30" width="330" height="30" as="geometry" />
        </mxCell>
        <mxCell id="C-vyLk0tnHw3VtMMgP7b-15" value="PK" style="shape=partialRectangle;overflow=hidden;connectable=0;fillColor=none;top=0;left=0;bottom=0;right=0;fontStyle=1;" parent="C-vyLk0tnHw3VtMMgP7b-14" vertex="1">
          <mxGeometry width="30" height="30" as="geometry">
            <mxRectangle width="30" height="30" as="alternateBounds" />
          </mxGeometry>
        </mxCell>
        <mxCell id="C-vyLk0tnHw3VtMMgP7b-16" value="subscription_id int(11) not null" style="shape=partialRectangle;overflow=hidden;connectable=0;fillColor=none;top=0;left=0;bottom=0;right=0;align=left;spacingLeft=6;fontStyle=5;" parent="C-vyLk0tnHw3VtMMgP7b-14" vertex="1">
          <mxGeometry x="30" width="300" height="30" as="geometry">
            <mxRectangle width="300" height="30" as="alternateBounds" />
          </mxGeometry>
        </mxCell>
        <mxCell id="C-vyLk0tnHw3VtMMgP7b-17" value="" style="shape=partialRectangle;collapsible=0;dropTarget=0;pointerEvents=0;fillColor=none;points=[[0,0.5],[1,0.5]];portConstraint=eastwest;top=0;left=0;right=0;bottom=0;" parent="C-vyLk0tnHw3VtMMgP7b-13" vertex="1">
          <mxGeometry y="60" width="330" height="30" as="geometry" />
        </mxCell>
        <mxCell id="C-vyLk0tnHw3VtMMgP7b-18" value="" style="shape=partialRectangle;overflow=hidden;connectable=0;fillColor=none;top=0;left=0;bottom=0;right=0;" parent="C-vyLk0tnHw3VtMMgP7b-17" vertex="1">
          <mxGeometry width="30" height="30" as="geometry">
            <mxRectangle width="30" height="30" as="alternateBounds" />
          </mxGeometry>
        </mxCell>
        <mxCell id="C-vyLk0tnHw3VtMMgP7b-19" value="subscription_name varchar(255) not null" style="shape=partialRectangle;overflow=hidden;connectable=0;fillColor=none;top=0;left=0;bottom=0;right=0;align=left;spacingLeft=6;" parent="C-vyLk0tnHw3VtMMgP7b-17" vertex="1">
          <mxGeometry x="30" width="300" height="30" as="geometry">
            <mxRectangle width="300" height="30" as="alternateBounds" />
          </mxGeometry>
        </mxCell>
        <mxCell id="C-vyLk0tnHw3VtMMgP7b-20" value="" style="shape=partialRectangle;collapsible=0;dropTarget=0;pointerEvents=0;fillColor=none;points=[[0,0.5],[1,0.5]];portConstraint=eastwest;top=0;left=0;right=0;bottom=0;" parent="C-vyLk0tnHw3VtMMgP7b-13" vertex="1">
          <mxGeometry y="90" width="330" height="30" as="geometry" />
        </mxCell>
        <mxCell id="C-vyLk0tnHw3VtMMgP7b-21" value="" style="shape=partialRectangle;overflow=hidden;connectable=0;fillColor=none;top=0;left=0;bottom=0;right=0;" parent="C-vyLk0tnHw3VtMMgP7b-20" vertex="1">
          <mxGeometry width="30" height="30" as="geometry">
            <mxRectangle width="30" height="30" as="alternateBounds" />
          </mxGeometry>
        </mxCell>
        <mxCell id="C-vyLk0tnHw3VtMMgP7b-22" value="subscription price float not null default 7.99" style="shape=partialRectangle;overflow=hidden;connectable=0;fillColor=none;top=0;left=0;bottom=0;right=0;align=left;spacingLeft=6;" parent="C-vyLk0tnHw3VtMMgP7b-20" vertex="1">
          <mxGeometry x="30" width="300" height="30" as="geometry">
            <mxRectangle width="300" height="30" as="alternateBounds" />
          </mxGeometry>
        </mxCell>
        <mxCell id="C-vyLk0tnHw3VtMMgP7b-23" value="Account" style="shape=table;startSize=30;container=1;collapsible=1;childLayout=tableLayout;fixedRows=1;rowLines=0;fontStyle=1;align=center;resizeLast=1;" parent="1" vertex="1">
          <mxGeometry y="-250" width="300" height="250" as="geometry">
            <mxRectangle x="100" y="120" width="100" height="30" as="alternateBounds" />
          </mxGeometry>
        </mxCell>
        <mxCell id="C-vyLk0tnHw3VtMMgP7b-24" value="" style="shape=partialRectangle;collapsible=0;dropTarget=0;pointerEvents=0;fillColor=none;points=[[0,0.5],[1,0.5]];portConstraint=eastwest;top=0;left=0;right=0;bottom=1;" parent="C-vyLk0tnHw3VtMMgP7b-23" vertex="1">
          <mxGeometry y="30" width="300" height="30" as="geometry" />
        </mxCell>
        <mxCell id="C-vyLk0tnHw3VtMMgP7b-25" value="PK" style="shape=partialRectangle;overflow=hidden;connectable=0;fillColor=none;top=0;left=0;bottom=0;right=0;fontStyle=1;" parent="C-vyLk0tnHw3VtMMgP7b-24" vertex="1">
          <mxGeometry width="30" height="30" as="geometry">
            <mxRectangle width="30" height="30" as="alternateBounds" />
          </mxGeometry>
        </mxCell>
        <mxCell id="C-vyLk0tnHw3VtMMgP7b-26" value="account_id int(11) not null " style="shape=partialRectangle;overflow=hidden;connectable=0;fillColor=none;top=0;left=0;bottom=0;right=0;align=left;spacingLeft=6;fontStyle=5;" parent="C-vyLk0tnHw3VtMMgP7b-24" vertex="1">
          <mxGeometry x="30" width="270" height="30" as="geometry">
            <mxRectangle width="270" height="30" as="alternateBounds" />
          </mxGeometry>
        </mxCell>
        <mxCell id="XaDpsOBtemNNsNq5cKj4-9" value="" style="shape=tableRow;horizontal=0;startSize=0;swimlaneHead=0;swimlaneBody=0;fillColor=none;collapsible=0;dropTarget=0;points=[[0,0.5],[1,0.5]];portConstraint=eastwest;top=0;left=0;right=0;bottom=0;" parent="C-vyLk0tnHw3VtMMgP7b-23" vertex="1">
          <mxGeometry y="60" width="300" height="30" as="geometry" />
        </mxCell>
        <mxCell id="XaDpsOBtemNNsNq5cKj4-10" value="FK" style="shape=partialRectangle;connectable=0;fillColor=none;top=0;left=0;bottom=0;right=0;fontStyle=0;overflow=hidden;whiteSpace=wrap;html=1;" parent="XaDpsOBtemNNsNq5cKj4-9" vertex="1">
          <mxGeometry width="30" height="30" as="geometry">
            <mxRectangle width="30" height="30" as="alternateBounds" />
          </mxGeometry>
        </mxCell>
        <mxCell id="XaDpsOBtemNNsNq5cKj4-11" value="subscription_id int(11) not null" style="shape=partialRectangle;connectable=0;fillColor=none;top=0;left=0;bottom=0;right=0;align=left;spacingLeft=6;fontStyle=0;overflow=hidden;whiteSpace=wrap;html=1;" parent="XaDpsOBtemNNsNq5cKj4-9" vertex="1">
          <mxGeometry x="30" width="270" height="30" as="geometry">
            <mxRectangle width="270" height="30" as="alternateBounds" />
          </mxGeometry>
        </mxCell>
        <mxCell id="xZmK3IjfuJ7G6EqLBc_R-34" value="" style="shape=tableRow;horizontal=0;startSize=0;swimlaneHead=0;swimlaneBody=0;fillColor=none;collapsible=0;dropTarget=0;points=[[0,0.5],[1,0.5]];portConstraint=eastwest;top=0;left=0;right=0;bottom=0;" parent="C-vyLk0tnHw3VtMMgP7b-23" vertex="1">
          <mxGeometry y="90" width="300" height="30" as="geometry" />
        </mxCell>
        <mxCell id="xZmK3IjfuJ7G6EqLBc_R-35" value="" style="shape=partialRectangle;connectable=0;fillColor=none;top=0;left=0;bottom=0;right=0;editable=1;overflow=hidden;" parent="xZmK3IjfuJ7G6EqLBc_R-34" vertex="1">
          <mxGeometry width="30" height="30" as="geometry">
            <mxRectangle width="30" height="30" as="alternateBounds" />
          </mxGeometry>
        </mxCell>
        <mxCell id="xZmK3IjfuJ7G6EqLBc_R-36" value="email varchar(255) not null" style="shape=partialRectangle;connectable=0;fillColor=none;top=0;left=0;bottom=0;right=0;align=left;spacingLeft=6;overflow=hidden;" parent="xZmK3IjfuJ7G6EqLBc_R-34" vertex="1">
          <mxGeometry x="30" width="270" height="30" as="geometry">
            <mxRectangle width="270" height="30" as="alternateBounds" />
          </mxGeometry>
        </mxCell>
        <mxCell id="xZmK3IjfuJ7G6EqLBc_R-31" value="" style="shape=tableRow;horizontal=0;startSize=0;swimlaneHead=0;swimlaneBody=0;fillColor=none;collapsible=0;dropTarget=0;points=[[0,0.5],[1,0.5]];portConstraint=eastwest;top=0;left=0;right=0;bottom=0;" parent="C-vyLk0tnHw3VtMMgP7b-23" vertex="1">
          <mxGeometry y="120" width="300" height="30" as="geometry" />
        </mxCell>
        <mxCell id="xZmK3IjfuJ7G6EqLBc_R-32" value="" style="shape=partialRectangle;connectable=0;fillColor=none;top=0;left=0;bottom=0;right=0;editable=1;overflow=hidden;" parent="xZmK3IjfuJ7G6EqLBc_R-31" vertex="1">
          <mxGeometry width="30" height="30" as="geometry">
            <mxRectangle width="30" height="30" as="alternateBounds" />
          </mxGeometry>
        </mxCell>
        <mxCell id="xZmK3IjfuJ7G6EqLBc_R-33" value="hashed_password varchar(255) not null" style="shape=partialRectangle;connectable=0;fillColor=none;top=0;left=0;bottom=0;right=0;align=left;spacingLeft=6;overflow=hidden;" parent="xZmK3IjfuJ7G6EqLBc_R-31" vertex="1">
          <mxGeometry x="30" width="270" height="30" as="geometry">
            <mxRectangle width="270" height="30" as="alternateBounds" />
          </mxGeometry>
        </mxCell>
        <mxCell id="xZmK3IjfuJ7G6EqLBc_R-28" value="" style="shape=tableRow;horizontal=0;startSize=0;swimlaneHead=0;swimlaneBody=0;fillColor=none;collapsible=0;dropTarget=0;points=[[0,0.5],[1,0.5]];portConstraint=eastwest;top=0;left=0;right=0;bottom=0;" parent="C-vyLk0tnHw3VtMMgP7b-23" vertex="1">
          <mxGeometry y="150" width="300" height="30" as="geometry" />
        </mxCell>
        <mxCell id="xZmK3IjfuJ7G6EqLBc_R-29" value="" style="shape=partialRectangle;connectable=0;fillColor=none;top=0;left=0;bottom=0;right=0;editable=1;overflow=hidden;" parent="xZmK3IjfuJ7G6EqLBc_R-28" vertex="1">
          <mxGeometry width="30" height="30" as="geometry">
            <mxRectangle width="30" height="30" as="alternateBounds" />
          </mxGeometry>
        </mxCell>
        <mxCell id="xZmK3IjfuJ7G6EqLBc_R-30" value="blocked bit default 0" style="shape=partialRectangle;connectable=0;fillColor=none;top=0;left=0;bottom=0;right=0;align=left;spacingLeft=6;overflow=hidden;" parent="xZmK3IjfuJ7G6EqLBc_R-28" vertex="1">
          <mxGeometry x="30" width="270" height="30" as="geometry">
            <mxRectangle width="270" height="30" as="alternateBounds" />
          </mxGeometry>
        </mxCell>
        <mxCell id="xZmK3IjfuJ7G6EqLBc_R-25" value="" style="shape=tableRow;horizontal=0;startSize=0;swimlaneHead=0;swimlaneBody=0;fillColor=none;collapsible=0;dropTarget=0;points=[[0,0.5],[1,0.5]];portConstraint=eastwest;top=0;left=0;right=0;bottom=0;" parent="C-vyLk0tnHw3VtMMgP7b-23" vertex="1">
          <mxGeometry y="180" width="300" height="30" as="geometry" />
        </mxCell>
        <mxCell id="xZmK3IjfuJ7G6EqLBc_R-26" value="" style="shape=partialRectangle;connectable=0;fillColor=none;top=0;left=0;bottom=0;right=0;editable=1;overflow=hidden;" parent="xZmK3IjfuJ7G6EqLBc_R-25" vertex="1">
          <mxGeometry width="30" height="30" as="geometry">
            <mxRectangle width="30" height="30" as="alternateBounds" />
          </mxGeometry>
        </mxCell>
        <mxCell id="xZmK3IjfuJ7G6EqLBc_R-27" value="discount_active bit default 0" style="shape=partialRectangle;connectable=0;fillColor=none;top=0;left=0;bottom=0;right=0;align=left;spacingLeft=6;overflow=hidden;" parent="xZmK3IjfuJ7G6EqLBc_R-25" vertex="1">
          <mxGeometry x="30" width="270" height="30" as="geometry">
            <mxRectangle width="270" height="30" as="alternateBounds" />
          </mxGeometry>
        </mxCell>
        <mxCell id="Y_65aHJJYKN84D6p4-pK-4" value="" style="shape=tableRow;horizontal=0;startSize=0;swimlaneHead=0;swimlaneBody=0;fillColor=none;collapsible=0;dropTarget=0;points=[[0,0.5],[1,0.5]];portConstraint=eastwest;top=0;left=0;right=0;bottom=0;" parent="C-vyLk0tnHw3VtMMgP7b-23" vertex="1">
          <mxGeometry y="210" width="300" height="30" as="geometry" />
        </mxCell>
        <mxCell id="Y_65aHJJYKN84D6p4-pK-5" value="" style="shape=partialRectangle;connectable=0;fillColor=none;top=0;left=0;bottom=0;right=0;editable=1;overflow=hidden;" parent="Y_65aHJJYKN84D6p4-pK-4" vertex="1">
          <mxGeometry width="30" height="30" as="geometry">
            <mxRectangle width="30" height="30" as="alternateBounds" />
          </mxGeometry>
        </mxCell>
        <mxCell id="Y_65aHJJYKN84D6p4-pK-6" value="billed_from date not null" style="shape=partialRectangle;connectable=0;fillColor=none;top=0;left=0;bottom=0;right=0;align=left;spacingLeft=6;overflow=hidden;" parent="Y_65aHJJYKN84D6p4-pK-4" vertex="1">
          <mxGeometry x="30" width="270" height="30" as="geometry">
            <mxRectangle width="270" height="30" as="alternateBounds" />
          </mxGeometry>
        </mxCell>
        <mxCell id="xZmK3IjfuJ7G6EqLBc_R-56" value="" style="edgeStyle=orthogonalEdgeStyle;fontSize=12;html=1;endArrow=ERoneToMany;startArrow=ERmandOne;rounded=0;startSize=8;endSize=8;exitX=0.999;exitY=0.072;exitDx=0;exitDy=0;exitPerimeter=0;entryX=0;entryY=0.5;entryDx=0;entryDy=0;" parent="1" source="xZmK3IjfuJ7G6EqLBc_R-28" target="xZmK3IjfuJ7G6EqLBc_R-38" edge="1">
          <mxGeometry width="100" height="100" relative="1" as="geometry">
            <mxPoint x="430" y="250" as="sourcePoint" />
            <mxPoint x="530" y="150" as="targetPoint" />
          </mxGeometry>
        </mxCell>
        <mxCell id="xZmK3IjfuJ7G6EqLBc_R-90" value="Series" style="shape=table;startSize=30;container=1;collapsible=1;childLayout=tableLayout;fixedRows=1;rowLines=0;fontStyle=1;align=center;resizeLast=1;html=1;" parent="1" vertex="1">
          <mxGeometry y="741" width="300" height="150" as="geometry" />
        </mxCell>
        <mxCell id="xZmK3IjfuJ7G6EqLBc_R-91" value="" style="shape=tableRow;horizontal=0;startSize=0;swimlaneHead=0;swimlaneBody=0;fillColor=none;collapsible=0;dropTarget=0;points=[[0,0.5],[1,0.5]];portConstraint=eastwest;top=0;left=0;right=0;bottom=1;" parent="xZmK3IjfuJ7G6EqLBc_R-90" vertex="1">
          <mxGeometry y="30" width="300" height="30" as="geometry" />
        </mxCell>
        <mxCell id="xZmK3IjfuJ7G6EqLBc_R-92" value="PK" style="shape=partialRectangle;connectable=0;fillColor=none;top=0;left=0;bottom=0;right=0;fontStyle=1;overflow=hidden;whiteSpace=wrap;html=1;" parent="xZmK3IjfuJ7G6EqLBc_R-91" vertex="1">
          <mxGeometry width="30" height="30" as="geometry">
            <mxRectangle width="30" height="30" as="alternateBounds" />
          </mxGeometry>
        </mxCell>
        <mxCell id="xZmK3IjfuJ7G6EqLBc_R-93" value="series_id int(11) not null" style="shape=partialRectangle;connectable=0;fillColor=none;top=0;left=0;bottom=0;right=0;align=left;spacingLeft=6;fontStyle=5;overflow=hidden;whiteSpace=wrap;html=1;" parent="xZmK3IjfuJ7G6EqLBc_R-91" vertex="1">
          <mxGeometry x="30" width="270" height="30" as="geometry">
            <mxRectangle width="270" height="30" as="alternateBounds" />
          </mxGeometry>
        </mxCell>
        <mxCell id="xZmK3IjfuJ7G6EqLBc_R-94" value="" style="shape=tableRow;horizontal=0;startSize=0;swimlaneHead=0;swimlaneBody=0;fillColor=none;collapsible=0;dropTarget=0;points=[[0,0.5],[1,0.5]];portConstraint=eastwest;top=0;left=0;right=0;bottom=0;" parent="xZmK3IjfuJ7G6EqLBc_R-90" vertex="1">
          <mxGeometry y="60" width="300" height="30" as="geometry" />
        </mxCell>
        <mxCell id="xZmK3IjfuJ7G6EqLBc_R-95" value="" style="shape=partialRectangle;connectable=0;fillColor=none;top=0;left=0;bottom=0;right=0;editable=1;overflow=hidden;whiteSpace=wrap;html=1;" parent="xZmK3IjfuJ7G6EqLBc_R-94" vertex="1">
          <mxGeometry width="30" height="30" as="geometry">
            <mxRectangle width="30" height="30" as="alternateBounds" />
          </mxGeometry>
        </mxCell>
        <mxCell id="xZmK3IjfuJ7G6EqLBc_R-96" value="title varchar(255) not null" style="shape=partialRectangle;connectable=0;fillColor=none;top=0;left=0;bottom=0;right=0;align=left;spacingLeft=6;overflow=hidden;whiteSpace=wrap;html=1;" parent="xZmK3IjfuJ7G6EqLBc_R-94" vertex="1">
          <mxGeometry x="30" width="270" height="30" as="geometry">
            <mxRectangle width="270" height="30" as="alternateBounds" />
          </mxGeometry>
        </mxCell>
        <mxCell id="xZmK3IjfuJ7G6EqLBc_R-97" value="" style="shape=tableRow;horizontal=0;startSize=0;swimlaneHead=0;swimlaneBody=0;fillColor=none;collapsible=0;dropTarget=0;points=[[0,0.5],[1,0.5]];portConstraint=eastwest;top=0;left=0;right=0;bottom=0;" parent="xZmK3IjfuJ7G6EqLBc_R-90" vertex="1">
          <mxGeometry y="90" width="300" height="30" as="geometry" />
        </mxCell>
        <mxCell id="xZmK3IjfuJ7G6EqLBc_R-98" value="FK" style="shape=partialRectangle;connectable=0;fillColor=none;top=0;left=0;bottom=0;right=0;editable=1;overflow=hidden;whiteSpace=wrap;html=1;" parent="xZmK3IjfuJ7G6EqLBc_R-97" vertex="1">
          <mxGeometry width="30" height="30" as="geometry">
            <mxRectangle width="30" height="30" as="alternateBounds" />
          </mxGeometry>
        </mxCell>
        <mxCell id="xZmK3IjfuJ7G6EqLBc_R-99" value="genre_id int(11) not null" style="shape=partialRectangle;connectable=0;fillColor=none;top=0;left=0;bottom=0;right=0;align=left;spacingLeft=6;overflow=hidden;whiteSpace=wrap;html=1;" parent="xZmK3IjfuJ7G6EqLBc_R-97" vertex="1">
          <mxGeometry x="30" width="270" height="30" as="geometry">
            <mxRectangle width="270" height="30" as="alternateBounds" />
          </mxGeometry>
        </mxCell>
        <mxCell id="xZmK3IjfuJ7G6EqLBc_R-103" value="" style="shape=tableRow;horizontal=0;startSize=0;swimlaneHead=0;swimlaneBody=0;fillColor=none;collapsible=0;dropTarget=0;points=[[0,0.5],[1,0.5]];portConstraint=eastwest;top=0;left=0;right=0;bottom=0;" parent="xZmK3IjfuJ7G6EqLBc_R-90" vertex="1">
          <mxGeometry y="120" width="300" height="30" as="geometry" />
        </mxCell>
        <mxCell id="xZmK3IjfuJ7G6EqLBc_R-104" value="" style="shape=partialRectangle;connectable=0;fillColor=none;top=0;left=0;bottom=0;right=0;editable=1;overflow=hidden;" parent="xZmK3IjfuJ7G6EqLBc_R-103" vertex="1">
          <mxGeometry width="30" height="30" as="geometry">
            <mxRectangle width="30" height="30" as="alternateBounds" />
          </mxGeometry>
        </mxCell>
        <mxCell id="xZmK3IjfuJ7G6EqLBc_R-105" value="number_of_seasons int(11) default  &#39;1&#39;" style="shape=partialRectangle;connectable=0;fillColor=none;top=0;left=0;bottom=0;right=0;align=left;spacingLeft=6;overflow=hidden;" parent="xZmK3IjfuJ7G6EqLBc_R-103" vertex="1">
          <mxGeometry x="30" width="270" height="30" as="geometry">
            <mxRectangle width="270" height="30" as="alternateBounds" />
          </mxGeometry>
        </mxCell>
        <mxCell id="xZmK3IjfuJ7G6EqLBc_R-108" value="" style="fontSize=12;html=1;endArrow=ERoneToMany;startArrow=ERmandOne;rounded=0;startSize=8;endSize=8;entryX=0.5;entryY=0;entryDx=0;entryDy=0;exitX=0.485;exitY=1.033;exitDx=0;exitDy=0;exitPerimeter=0;" parent="1" source="xZmK3IjfuJ7G6EqLBc_R-103" target="XaDpsOBtemNNsNq5cKj4-24" edge="1">
          <mxGeometry width="100" height="100" relative="1" as="geometry">
            <mxPoint x="150.13070913461524" y="921" as="sourcePoint" />
            <mxPoint x="153.8188976377951" y="1100" as="targetPoint" />
          </mxGeometry>
        </mxCell>
        <mxCell id="xZmK3IjfuJ7G6EqLBc_R-109" value="Genre" style="shape=table;startSize=30;container=1;collapsible=1;childLayout=tableLayout;fixedRows=1;rowLines=0;fontStyle=1;align=center;resizeLast=1;html=1;" parent="1" vertex="1">
          <mxGeometry y="530" width="270" height="90" as="geometry" />
        </mxCell>
        <mxCell id="xZmK3IjfuJ7G6EqLBc_R-110" value="" style="shape=tableRow;horizontal=0;startSize=0;swimlaneHead=0;swimlaneBody=0;fillColor=none;collapsible=0;dropTarget=0;points=[[0,0.5],[1,0.5]];portConstraint=eastwest;top=0;left=0;right=0;bottom=1;" parent="xZmK3IjfuJ7G6EqLBc_R-109" vertex="1">
          <mxGeometry y="30" width="270" height="30" as="geometry" />
        </mxCell>
        <mxCell id="xZmK3IjfuJ7G6EqLBc_R-111" value="PK" style="shape=partialRectangle;connectable=0;fillColor=none;top=0;left=0;bottom=0;right=0;fontStyle=1;overflow=hidden;whiteSpace=wrap;html=1;" parent="xZmK3IjfuJ7G6EqLBc_R-110" vertex="1">
          <mxGeometry width="30" height="30" as="geometry">
            <mxRectangle width="30" height="30" as="alternateBounds" />
          </mxGeometry>
        </mxCell>
        <mxCell id="xZmK3IjfuJ7G6EqLBc_R-112" value="genre_id int(11) not null" style="shape=partialRectangle;connectable=0;fillColor=none;top=0;left=0;bottom=0;right=0;align=left;spacingLeft=6;fontStyle=5;overflow=hidden;whiteSpace=wrap;html=1;" parent="xZmK3IjfuJ7G6EqLBc_R-110" vertex="1">
          <mxGeometry x="30" width="240" height="30" as="geometry">
            <mxRectangle width="240" height="30" as="alternateBounds" />
          </mxGeometry>
        </mxCell>
        <mxCell id="xZmK3IjfuJ7G6EqLBc_R-113" value="" style="shape=tableRow;horizontal=0;startSize=0;swimlaneHead=0;swimlaneBody=0;fillColor=none;collapsible=0;dropTarget=0;points=[[0,0.5],[1,0.5]];portConstraint=eastwest;top=0;left=0;right=0;bottom=0;" parent="xZmK3IjfuJ7G6EqLBc_R-109" vertex="1">
          <mxGeometry y="60" width="270" height="30" as="geometry" />
        </mxCell>
        <mxCell id="xZmK3IjfuJ7G6EqLBc_R-114" value="" style="shape=partialRectangle;connectable=0;fillColor=none;top=0;left=0;bottom=0;right=0;editable=1;overflow=hidden;whiteSpace=wrap;html=1;" parent="xZmK3IjfuJ7G6EqLBc_R-113" vertex="1">
          <mxGeometry width="30" height="30" as="geometry">
            <mxRectangle width="30" height="30" as="alternateBounds" />
          </mxGeometry>
        </mxCell>
        <mxCell id="xZmK3IjfuJ7G6EqLBc_R-115" value="genre_name varchar(255) not null" style="shape=partialRectangle;connectable=0;fillColor=none;top=0;left=0;bottom=0;right=0;align=left;spacingLeft=6;overflow=hidden;whiteSpace=wrap;html=1;" parent="xZmK3IjfuJ7G6EqLBc_R-113" vertex="1">
          <mxGeometry x="30" width="240" height="30" as="geometry">
            <mxRectangle width="240" height="30" as="alternateBounds" />
          </mxGeometry>
        </mxCell>
        <mxCell id="xZmK3IjfuJ7G6EqLBc_R-122" value="Subtitle" style="shape=table;startSize=30;container=1;collapsible=1;childLayout=tableLayout;fixedRows=1;rowLines=0;fontStyle=1;align=center;resizeLast=1;html=1;" parent="1" vertex="1">
          <mxGeometry x="541" y="1081" width="306" height="150" as="geometry" />
        </mxCell>
        <mxCell id="xZmK3IjfuJ7G6EqLBc_R-123" value="" style="shape=tableRow;horizontal=0;startSize=0;swimlaneHead=0;swimlaneBody=0;fillColor=none;collapsible=0;dropTarget=0;points=[[0,0.5],[1,0.5]];portConstraint=eastwest;top=0;left=0;right=0;bottom=1;" parent="xZmK3IjfuJ7G6EqLBc_R-122" vertex="1">
          <mxGeometry y="30" width="306" height="30" as="geometry" />
        </mxCell>
        <mxCell id="xZmK3IjfuJ7G6EqLBc_R-124" value="PK" style="shape=partialRectangle;connectable=0;fillColor=none;top=0;left=0;bottom=0;right=0;fontStyle=1;overflow=hidden;whiteSpace=wrap;html=1;" parent="xZmK3IjfuJ7G6EqLBc_R-123" vertex="1">
          <mxGeometry width="30" height="30" as="geometry">
            <mxRectangle width="30" height="30" as="alternateBounds" />
          </mxGeometry>
        </mxCell>
        <mxCell id="xZmK3IjfuJ7G6EqLBc_R-125" value="subtitle_id int(11) not null" style="shape=partialRectangle;connectable=0;fillColor=none;top=0;left=0;bottom=0;right=0;align=left;spacingLeft=6;fontStyle=5;overflow=hidden;whiteSpace=wrap;html=1;" parent="xZmK3IjfuJ7G6EqLBc_R-123" vertex="1">
          <mxGeometry x="30" width="276" height="30" as="geometry">
            <mxRectangle width="276" height="30" as="alternateBounds" />
          </mxGeometry>
        </mxCell>
        <mxCell id="XaDpsOBtemNNsNq5cKj4-12" value="" style="shape=tableRow;horizontal=0;startSize=0;swimlaneHead=0;swimlaneBody=0;fillColor=none;collapsible=0;dropTarget=0;points=[[0,0.5],[1,0.5]];portConstraint=eastwest;top=0;left=0;right=0;bottom=0;" parent="xZmK3IjfuJ7G6EqLBc_R-122" vertex="1">
          <mxGeometry y="60" width="306" height="30" as="geometry" />
        </mxCell>
        <mxCell id="XaDpsOBtemNNsNq5cKj4-13" value="FK" style="shape=partialRectangle;connectable=0;fillColor=none;top=0;left=0;bottom=0;right=0;fontStyle=0;overflow=hidden;whiteSpace=wrap;html=1;" parent="XaDpsOBtemNNsNq5cKj4-12" vertex="1">
          <mxGeometry width="30" height="30" as="geometry">
            <mxRectangle width="30" height="30" as="alternateBounds" />
          </mxGeometry>
        </mxCell>
        <mxCell id="XaDpsOBtemNNsNq5cKj4-14" value="subtitle_lang int(11) not null" style="shape=partialRectangle;connectable=0;fillColor=none;top=0;left=0;bottom=0;right=0;align=left;spacingLeft=6;fontStyle=0;overflow=hidden;whiteSpace=wrap;html=1;" parent="XaDpsOBtemNNsNq5cKj4-12" vertex="1">
          <mxGeometry x="30" width="276" height="30" as="geometry">
            <mxRectangle width="276" height="30" as="alternateBounds" />
          </mxGeometry>
        </mxCell>
        <mxCell id="XaDpsOBtemNNsNq5cKj4-15" value="" style="shape=tableRow;horizontal=0;startSize=0;swimlaneHead=0;swimlaneBody=0;fillColor=none;collapsible=0;dropTarget=0;points=[[0,0.5],[1,0.5]];portConstraint=eastwest;top=0;left=0;right=0;bottom=0;" parent="xZmK3IjfuJ7G6EqLBc_R-122" vertex="1">
          <mxGeometry y="90" width="306" height="30" as="geometry" />
        </mxCell>
        <mxCell id="XaDpsOBtemNNsNq5cKj4-16" value="FK" style="shape=partialRectangle;connectable=0;fillColor=none;top=0;left=0;bottom=0;right=0;fontStyle=0;overflow=hidden;whiteSpace=wrap;html=1;" parent="XaDpsOBtemNNsNq5cKj4-15" vertex="1">
          <mxGeometry width="30" height="30" as="geometry">
            <mxRectangle width="30" height="30" as="alternateBounds" />
          </mxGeometry>
        </mxCell>
        <mxCell id="XaDpsOBtemNNsNq5cKj4-17" value="media_id int(11) not null" style="shape=partialRectangle;connectable=0;fillColor=none;top=0;left=0;bottom=0;right=0;align=left;spacingLeft=6;fontStyle=0;overflow=hidden;whiteSpace=wrap;html=1;" parent="XaDpsOBtemNNsNq5cKj4-15" vertex="1">
          <mxGeometry x="30" width="276" height="30" as="geometry">
            <mxRectangle width="276" height="30" as="alternateBounds" />
          </mxGeometry>
        </mxCell>
        <mxCell id="xZmK3IjfuJ7G6EqLBc_R-135" value="" style="shape=tableRow;horizontal=0;startSize=0;swimlaneHead=0;swimlaneBody=0;fillColor=none;collapsible=0;dropTarget=0;points=[[0,0.5],[1,0.5]];portConstraint=eastwest;top=0;left=0;right=0;bottom=0;" parent="xZmK3IjfuJ7G6EqLBc_R-122" vertex="1">
          <mxGeometry y="120" width="306" height="30" as="geometry" />
        </mxCell>
        <mxCell id="xZmK3IjfuJ7G6EqLBc_R-136" value="" style="shape=partialRectangle;connectable=0;fillColor=none;top=0;left=0;bottom=0;right=0;editable=1;overflow=hidden;" parent="xZmK3IjfuJ7G6EqLBc_R-135" vertex="1">
          <mxGeometry width="30" height="30" as="geometry">
            <mxRectangle width="30" height="30" as="alternateBounds" />
          </mxGeometry>
        </mxCell>
        <mxCell id="xZmK3IjfuJ7G6EqLBc_R-137" value="subtitle_location varchar(255) not null" style="shape=partialRectangle;connectable=0;fillColor=none;top=0;left=0;bottom=0;right=0;align=left;spacingLeft=6;overflow=hidden;" parent="xZmK3IjfuJ7G6EqLBc_R-135" vertex="1">
          <mxGeometry x="30" width="276" height="30" as="geometry">
            <mxRectangle width="276" height="30" as="alternateBounds" />
          </mxGeometry>
        </mxCell>
        <mxCell id="xZmK3IjfuJ7G6EqLBc_R-139" value="" style="fontSize=12;html=1;endArrow=ERzeroToMany;startArrow=ERmandOne;rounded=0;startSize=8;endSize=8;entryX=0.5;entryY=0;entryDx=0;entryDy=0;exitX=0.556;exitY=0.991;exitDx=0;exitDy=0;exitPerimeter=0;" parent="1" source="xZmK3IjfuJ7G6EqLBc_R-113" target="xZmK3IjfuJ7G6EqLBc_R-90" edge="1">
          <mxGeometry width="100" height="100" relative="1" as="geometry">
            <mxPoint x="130" y="590" as="sourcePoint" />
            <mxPoint x="30" y="620" as="targetPoint" />
          </mxGeometry>
        </mxCell>
        <mxCell id="xZmK3IjfuJ7G6EqLBc_R-141" value="" style="edgeStyle=entityRelationEdgeStyle;fontSize=12;html=1;endArrow=ERzeroToMany;startArrow=ERmandOne;rounded=0;startSize=8;endSize=8;curved=1;exitX=1;exitY=0.5;exitDx=0;exitDy=0;entryX=0;entryY=0.5;entryDx=0;entryDy=0;" parent="1" source="C-vyLk0tnHw3VtMMgP7b-17" target="xZmK3IjfuJ7G6EqLBc_R-31" edge="1">
          <mxGeometry width="100" height="100" relative="1" as="geometry">
            <mxPoint x="-100" y="360" as="sourcePoint" />
            <mxPoint y="260" as="targetPoint" />
          </mxGeometry>
        </mxCell>
        <mxCell id="xZmK3IjfuJ7G6EqLBc_R-143" value="" style="edgeStyle=orthogonalEdgeStyle;fontSize=12;html=1;endArrow=ERzeroToMany;startArrow=ERmandOne;rounded=0;startSize=8;endSize=8;entryX=0.59;entryY=1.058;entryDx=0;entryDy=0;exitX=1;exitY=0.5;exitDx=0;exitDy=0;entryPerimeter=0;" parent="1" source="Ti9CZ3-ndMk54ntmwThr-21" target="xZmK3IjfuJ7G6EqLBc_R-135" edge="1">
          <mxGeometry width="100" height="100" relative="1" as="geometry">
            <mxPoint x="371.0000000000003" y="1446.4800000000005" as="sourcePoint" />
            <mxPoint x="628.8199999999999" y="1445" as="targetPoint" />
            <Array as="points">
              <mxPoint x="722" y="1457" />
            </Array>
          </mxGeometry>
        </mxCell>
        <mxCell id="xZmK3IjfuJ7G6EqLBc_R-144" value="Language" style="shape=table;startSize=30;container=1;collapsible=1;childLayout=tableLayout;fixedRows=1;rowLines=0;fontStyle=1;align=center;resizeLast=1;html=1;" parent="1" vertex="1">
          <mxGeometry x="850" y="550" width="200" height="90" as="geometry" />
        </mxCell>
        <mxCell id="xZmK3IjfuJ7G6EqLBc_R-145" value="" style="shape=tableRow;horizontal=0;startSize=0;swimlaneHead=0;swimlaneBody=0;fillColor=none;collapsible=0;dropTarget=0;points=[[0,0.5],[1,0.5]];portConstraint=eastwest;top=0;left=0;right=0;bottom=1;" parent="xZmK3IjfuJ7G6EqLBc_R-144" vertex="1">
          <mxGeometry y="30" width="200" height="30" as="geometry" />
        </mxCell>
        <mxCell id="xZmK3IjfuJ7G6EqLBc_R-146" value="PK" style="shape=partialRectangle;connectable=0;fillColor=none;top=0;left=0;bottom=0;right=0;fontStyle=1;overflow=hidden;whiteSpace=wrap;html=1;" parent="xZmK3IjfuJ7G6EqLBc_R-145" vertex="1">
          <mxGeometry width="30" height="30" as="geometry">
            <mxRectangle width="30" height="30" as="alternateBounds" />
          </mxGeometry>
        </mxCell>
        <mxCell id="xZmK3IjfuJ7G6EqLBc_R-147" value="lang_id int(11) not null" style="shape=partialRectangle;connectable=0;fillColor=none;top=0;left=0;bottom=0;right=0;align=left;spacingLeft=6;fontStyle=5;overflow=hidden;whiteSpace=wrap;html=1;" parent="xZmK3IjfuJ7G6EqLBc_R-145" vertex="1">
          <mxGeometry x="30" width="170" height="30" as="geometry">
            <mxRectangle width="170" height="30" as="alternateBounds" />
          </mxGeometry>
        </mxCell>
        <mxCell id="xZmK3IjfuJ7G6EqLBc_R-148" value="" style="shape=tableRow;horizontal=0;startSize=0;swimlaneHead=0;swimlaneBody=0;fillColor=none;collapsible=0;dropTarget=0;points=[[0,0.5],[1,0.5]];portConstraint=eastwest;top=0;left=0;right=0;bottom=0;" parent="xZmK3IjfuJ7G6EqLBc_R-144" vertex="1">
          <mxGeometry y="60" width="200" height="30" as="geometry" />
        </mxCell>
        <mxCell id="xZmK3IjfuJ7G6EqLBc_R-149" value="" style="shape=partialRectangle;connectable=0;fillColor=none;top=0;left=0;bottom=0;right=0;editable=1;overflow=hidden;whiteSpace=wrap;html=1;" parent="xZmK3IjfuJ7G6EqLBc_R-148" vertex="1">
          <mxGeometry width="30" height="30" as="geometry">
            <mxRectangle width="30" height="30" as="alternateBounds" />
          </mxGeometry>
        </mxCell>
        <mxCell id="xZmK3IjfuJ7G6EqLBc_R-150" value="lang varchar(255) not null" style="shape=partialRectangle;connectable=0;fillColor=none;top=0;left=0;bottom=0;right=0;align=left;spacingLeft=6;overflow=hidden;whiteSpace=wrap;html=1;" parent="xZmK3IjfuJ7G6EqLBc_R-148" vertex="1">
          <mxGeometry x="30" width="170" height="30" as="geometry">
            <mxRectangle width="170" height="30" as="alternateBounds" />
          </mxGeometry>
        </mxCell>
        <mxCell id="xZmK3IjfuJ7G6EqLBc_R-157" value="" style="edgeStyle=orthogonalEdgeStyle;fontSize=12;html=1;endArrow=ERzeroToMany;startArrow=ERmandOne;rounded=0;startSize=8;endSize=8;exitX=0.25;exitY=0;exitDx=0;exitDy=0;" parent="1" source="xZmK3IjfuJ7G6EqLBc_R-144" target="xZmK3IjfuJ7G6EqLBc_R-38" edge="1">
          <mxGeometry width="100" height="100" relative="1" as="geometry">
            <mxPoint x="840" y="380" as="sourcePoint" />
            <mxPoint x="940" y="280" as="targetPoint" />
          </mxGeometry>
        </mxCell>
        <mxCell id="xZmK3IjfuJ7G6EqLBc_R-158" value="" style="edgeStyle=orthogonalEdgeStyle;fontSize=12;html=1;endArrow=ERzeroToMany;startArrow=ERmandOne;rounded=0;startSize=8;endSize=8;exitX=0.25;exitY=1;exitDx=0;exitDy=0;entryX=1;entryY=0.5;entryDx=0;entryDy=0;" parent="1" source="xZmK3IjfuJ7G6EqLBc_R-144" target="xZmK3IjfuJ7G6EqLBc_R-123" edge="1">
          <mxGeometry width="100" height="100" relative="1" as="geometry">
            <mxPoint x="960" y="945" as="sourcePoint" />
            <mxPoint x="661.9999999999995" y="1175.0000000000005" as="targetPoint" />
          </mxGeometry>
        </mxCell>
        <mxCell id="xZmK3IjfuJ7G6EqLBc_R-159" value="Viewing_Classification" style="shape=table;startSize=30;container=1;collapsible=1;childLayout=tableLayout;fixedRows=1;rowLines=0;fontStyle=1;align=center;resizeLast=1;html=1;" parent="1" vertex="1">
          <mxGeometry x="850" y="-210" width="260" height="90" as="geometry" />
        </mxCell>
        <mxCell id="xZmK3IjfuJ7G6EqLBc_R-160" value="" style="shape=tableRow;horizontal=0;startSize=0;swimlaneHead=0;swimlaneBody=0;fillColor=none;collapsible=0;dropTarget=0;points=[[0,0.5],[1,0.5]];portConstraint=eastwest;top=0;left=0;right=0;bottom=1;" parent="xZmK3IjfuJ7G6EqLBc_R-159" vertex="1">
          <mxGeometry y="30" width="260" height="30" as="geometry" />
        </mxCell>
        <mxCell id="xZmK3IjfuJ7G6EqLBc_R-161" value="PK" style="shape=partialRectangle;connectable=0;fillColor=none;top=0;left=0;bottom=0;right=0;fontStyle=1;overflow=hidden;whiteSpace=wrap;html=1;" parent="xZmK3IjfuJ7G6EqLBc_R-160" vertex="1">
          <mxGeometry width="30" height="30" as="geometry">
            <mxRectangle width="30" height="30" as="alternateBounds" />
          </mxGeometry>
        </mxCell>
        <mxCell id="xZmK3IjfuJ7G6EqLBc_R-162" value="classification_id int(11) not null" style="shape=partialRectangle;connectable=0;fillColor=none;top=0;left=0;bottom=0;right=0;align=left;spacingLeft=6;fontStyle=5;overflow=hidden;whiteSpace=wrap;html=1;" parent="xZmK3IjfuJ7G6EqLBc_R-160" vertex="1">
          <mxGeometry x="30" width="230" height="30" as="geometry">
            <mxRectangle width="230" height="30" as="alternateBounds" />
          </mxGeometry>
        </mxCell>
        <mxCell id="xZmK3IjfuJ7G6EqLBc_R-163" value="" style="shape=tableRow;horizontal=0;startSize=0;swimlaneHead=0;swimlaneBody=0;fillColor=none;collapsible=0;dropTarget=0;points=[[0,0.5],[1,0.5]];portConstraint=eastwest;top=0;left=0;right=0;bottom=0;" parent="xZmK3IjfuJ7G6EqLBc_R-159" vertex="1">
          <mxGeometry y="60" width="260" height="30" as="geometry" />
        </mxCell>
        <mxCell id="xZmK3IjfuJ7G6EqLBc_R-164" value="" style="shape=partialRectangle;connectable=0;fillColor=none;top=0;left=0;bottom=0;right=0;editable=1;overflow=hidden;whiteSpace=wrap;html=1;" parent="xZmK3IjfuJ7G6EqLBc_R-163" vertex="1">
          <mxGeometry width="30" height="30" as="geometry">
            <mxRectangle width="30" height="30" as="alternateBounds" />
          </mxGeometry>
        </mxCell>
        <mxCell id="xZmK3IjfuJ7G6EqLBc_R-165" value="classification varchar(255) not null" style="shape=partialRectangle;connectable=0;fillColor=none;top=0;left=0;bottom=0;right=0;align=left;spacingLeft=6;overflow=hidden;whiteSpace=wrap;html=1;" parent="xZmK3IjfuJ7G6EqLBc_R-163" vertex="1">
          <mxGeometry x="30" width="230" height="30" as="geometry">
            <mxRectangle width="230" height="30" as="alternateBounds" />
          </mxGeometry>
        </mxCell>
        <mxCell id="xZmK3IjfuJ7G6EqLBc_R-172" value="Profile_Viewing_Classification" style="shape=table;startSize=30;container=1;collapsible=1;childLayout=tableLayout;fixedRows=1;rowLines=0;fontStyle=1;align=center;resizeLast=1;html=1;" parent="1" vertex="1">
          <mxGeometry x="518" y="-210" width="245" height="90" as="geometry" />
        </mxCell>
        <mxCell id="xZmK3IjfuJ7G6EqLBc_R-173" value="" style="shape=tableRow;horizontal=0;startSize=0;swimlaneHead=0;swimlaneBody=0;fillColor=none;collapsible=0;dropTarget=0;points=[[0,0.5],[1,0.5]];portConstraint=eastwest;top=0;left=0;right=0;bottom=1;" parent="xZmK3IjfuJ7G6EqLBc_R-172" vertex="1">
          <mxGeometry y="30" width="245" height="30" as="geometry" />
        </mxCell>
        <mxCell id="xZmK3IjfuJ7G6EqLBc_R-174" value="PK, FK" style="shape=partialRectangle;connectable=0;fillColor=none;top=0;left=0;bottom=0;right=0;fontStyle=1;overflow=hidden;whiteSpace=wrap;html=1;" parent="xZmK3IjfuJ7G6EqLBc_R-173" vertex="1">
          <mxGeometry width="30" height="30" as="geometry">
            <mxRectangle width="30" height="30" as="alternateBounds" />
          </mxGeometry>
        </mxCell>
        <mxCell id="xZmK3IjfuJ7G6EqLBc_R-175" value="profile_id int(11) not null" style="shape=partialRectangle;connectable=0;fillColor=none;top=0;left=0;bottom=0;right=0;align=left;spacingLeft=6;fontStyle=5;overflow=hidden;whiteSpace=wrap;html=1;" parent="xZmK3IjfuJ7G6EqLBc_R-173" vertex="1">
          <mxGeometry x="30" width="215" height="30" as="geometry">
            <mxRectangle width="215" height="30" as="alternateBounds" />
          </mxGeometry>
        </mxCell>
        <mxCell id="xZmK3IjfuJ7G6EqLBc_R-185" value="" style="shape=tableRow;horizontal=0;startSize=0;swimlaneHead=0;swimlaneBody=0;fillColor=none;collapsible=0;dropTarget=0;points=[[0,0.5],[1,0.5]];portConstraint=eastwest;top=0;left=0;right=0;bottom=1;" parent="xZmK3IjfuJ7G6EqLBc_R-172" vertex="1">
          <mxGeometry y="60" width="245" height="30" as="geometry" />
        </mxCell>
        <mxCell id="xZmK3IjfuJ7G6EqLBc_R-186" value="PK, FK" style="shape=partialRectangle;connectable=0;fillColor=none;top=0;left=0;bottom=0;right=0;fontStyle=1;overflow=hidden;whiteSpace=wrap;html=1;" parent="xZmK3IjfuJ7G6EqLBc_R-185" vertex="1">
          <mxGeometry width="30" height="30" as="geometry">
            <mxRectangle width="30" height="30" as="alternateBounds" />
          </mxGeometry>
        </mxCell>
        <mxCell id="xZmK3IjfuJ7G6EqLBc_R-187" value="classification_id int(11) not null" style="shape=partialRectangle;connectable=0;fillColor=none;top=0;left=0;bottom=0;right=0;align=left;spacingLeft=6;fontStyle=5;overflow=hidden;whiteSpace=wrap;html=1;" parent="xZmK3IjfuJ7G6EqLBc_R-185" vertex="1">
          <mxGeometry x="30" width="215" height="30" as="geometry">
            <mxRectangle width="215" height="30" as="alternateBounds" />
          </mxGeometry>
        </mxCell>
        <mxCell id="xZmK3IjfuJ7G6EqLBc_R-188" value="" style="edgeStyle=entityRelationEdgeStyle;fontSize=12;html=1;endArrow=ERzeroToMany;startArrow=ERmandOne;rounded=0;startSize=8;endSize=8;curved=1;" parent="1" source="xZmK3IjfuJ7G6EqLBc_R-160" target="xZmK3IjfuJ7G6EqLBc_R-173" edge="1">
          <mxGeometry width="100" height="100" relative="1" as="geometry">
            <mxPoint x="740" y="10" as="sourcePoint" />
            <mxPoint x="840" y="-90" as="targetPoint" />
          </mxGeometry>
        </mxCell>
        <mxCell id="xZmK3IjfuJ7G6EqLBc_R-189" value="" style="fontSize=12;html=1;endArrow=ERzeroToMany;startArrow=ERmandOne;rounded=0;startSize=8;endSize=8;exitX=0.5;exitY=0;exitDx=0;exitDy=0;entryX=0.478;entryY=1.011;entryDx=0;entryDy=0;entryPerimeter=0;" parent="1" source="C-vyLk0tnHw3VtMMgP7b-2" target="xZmK3IjfuJ7G6EqLBc_R-185" edge="1">
          <mxGeometry width="100" height="100" relative="1" as="geometry">
            <mxPoint x="745" y="-10" as="sourcePoint" />
            <mxPoint x="660" y="-10" as="targetPoint" />
          </mxGeometry>
        </mxCell>
        <mxCell id="WMk4B9uy6Fu5YuTfyZZx-14" value="Profile_Genre" style="shape=table;startSize=30;container=1;collapsible=1;childLayout=tableLayout;fixedRows=1;rowLines=0;fontStyle=1;align=center;resizeLast=1;html=1;" parent="1" vertex="1">
          <mxGeometry x="8.13" y="56" width="253.75" height="90" as="geometry" />
        </mxCell>
        <mxCell id="WMk4B9uy6Fu5YuTfyZZx-15" value="" style="shape=tableRow;horizontal=0;startSize=0;swimlaneHead=0;swimlaneBody=0;fillColor=none;collapsible=0;dropTarget=0;points=[[0,0.5],[1,0.5]];portConstraint=eastwest;top=0;left=0;right=0;bottom=1;" parent="WMk4B9uy6Fu5YuTfyZZx-14" vertex="1">
          <mxGeometry y="30" width="253.75" height="30" as="geometry" />
        </mxCell>
        <mxCell id="WMk4B9uy6Fu5YuTfyZZx-16" value="PK, FK" style="shape=partialRectangle;connectable=0;fillColor=none;top=0;left=0;bottom=0;right=0;fontStyle=1;overflow=hidden;whiteSpace=wrap;html=1;" parent="WMk4B9uy6Fu5YuTfyZZx-15" vertex="1">
          <mxGeometry width="30" height="30" as="geometry">
            <mxRectangle width="30" height="30" as="alternateBounds" />
          </mxGeometry>
        </mxCell>
        <mxCell id="WMk4B9uy6Fu5YuTfyZZx-17" value="profile_id int(11) not null" style="shape=partialRectangle;connectable=0;fillColor=none;top=0;left=0;bottom=0;right=0;align=left;spacingLeft=6;fontStyle=5;overflow=hidden;whiteSpace=wrap;html=1;" parent="WMk4B9uy6Fu5YuTfyZZx-15" vertex="1">
          <mxGeometry x="30" width="223.75" height="30" as="geometry">
            <mxRectangle width="223.75" height="30" as="alternateBounds" />
          </mxGeometry>
        </mxCell>
        <mxCell id="WMk4B9uy6Fu5YuTfyZZx-18" value="" style="shape=tableRow;horizontal=0;startSize=0;swimlaneHead=0;swimlaneBody=0;fillColor=none;collapsible=0;dropTarget=0;points=[[0,0.5],[1,0.5]];portConstraint=eastwest;top=0;left=0;right=0;bottom=1;" parent="WMk4B9uy6Fu5YuTfyZZx-14" vertex="1">
          <mxGeometry y="60" width="253.75" height="30" as="geometry" />
        </mxCell>
        <mxCell id="WMk4B9uy6Fu5YuTfyZZx-19" value="PK, FK" style="shape=partialRectangle;connectable=0;fillColor=none;top=0;left=0;bottom=0;right=0;fontStyle=1;overflow=hidden;whiteSpace=wrap;html=1;" parent="WMk4B9uy6Fu5YuTfyZZx-18" vertex="1">
          <mxGeometry width="30" height="30" as="geometry">
            <mxRectangle width="30" height="30" as="alternateBounds" />
          </mxGeometry>
        </mxCell>
        <mxCell id="WMk4B9uy6Fu5YuTfyZZx-20" value="genre_id int(11) not null" style="shape=partialRectangle;connectable=0;fillColor=none;top=0;left=0;bottom=0;right=0;align=left;spacingLeft=6;fontStyle=5;overflow=hidden;whiteSpace=wrap;html=1;" parent="WMk4B9uy6Fu5YuTfyZZx-18" vertex="1">
          <mxGeometry x="30" width="223.75" height="30" as="geometry">
            <mxRectangle width="223.75" height="30" as="alternateBounds" />
          </mxGeometry>
        </mxCell>
        <mxCell id="WMk4B9uy6Fu5YuTfyZZx-25" value="Profile_Watched_Media" style="shape=table;startSize=30;container=1;collapsible=1;childLayout=tableLayout;fixedRows=1;rowLines=0;fontStyle=1;align=center;resizeLast=1;html=1;" parent="1" vertex="1">
          <mxGeometry x="-445" y="290" width="280" height="210" as="geometry" />
        </mxCell>
        <mxCell id="WMk4B9uy6Fu5YuTfyZZx-26" value="" style="shape=tableRow;horizontal=0;startSize=0;swimlaneHead=0;swimlaneBody=0;fillColor=none;collapsible=0;dropTarget=0;points=[[0,0.5],[1,0.5]];portConstraint=eastwest;top=0;left=0;right=0;bottom=1;" parent="WMk4B9uy6Fu5YuTfyZZx-25" vertex="1">
          <mxGeometry y="30" width="280" height="30" as="geometry" />
        </mxCell>
        <mxCell id="WMk4B9uy6Fu5YuTfyZZx-27" value="PK, FK" style="shape=partialRectangle;connectable=0;fillColor=none;top=0;left=0;bottom=0;right=0;fontStyle=1;overflow=hidden;whiteSpace=wrap;html=1;" parent="WMk4B9uy6Fu5YuTfyZZx-26" vertex="1">
          <mxGeometry width="30" height="30" as="geometry">
            <mxRectangle width="30" height="30" as="alternateBounds" />
          </mxGeometry>
        </mxCell>
        <mxCell id="WMk4B9uy6Fu5YuTfyZZx-28" value="profile_id int(11) not null" style="shape=partialRectangle;connectable=0;fillColor=none;top=0;left=0;bottom=0;right=0;align=left;spacingLeft=6;fontStyle=5;overflow=hidden;whiteSpace=wrap;html=1;" parent="WMk4B9uy6Fu5YuTfyZZx-26" vertex="1">
          <mxGeometry x="30" width="250" height="30" as="geometry">
            <mxRectangle width="250" height="30" as="alternateBounds" />
          </mxGeometry>
        </mxCell>
        <mxCell id="WMk4B9uy6Fu5YuTfyZZx-29" value="" style="shape=tableRow;horizontal=0;startSize=0;swimlaneHead=0;swimlaneBody=0;fillColor=none;collapsible=0;dropTarget=0;points=[[0,0.5],[1,0.5]];portConstraint=eastwest;top=0;left=0;right=0;bottom=1;" parent="WMk4B9uy6Fu5YuTfyZZx-25" vertex="1">
          <mxGeometry y="60" width="280" height="30" as="geometry" />
        </mxCell>
        <mxCell id="WMk4B9uy6Fu5YuTfyZZx-30" value="PK, FK" style="shape=partialRectangle;connectable=0;fillColor=none;top=0;left=0;bottom=0;right=0;fontStyle=1;overflow=hidden;whiteSpace=wrap;html=1;" parent="WMk4B9uy6Fu5YuTfyZZx-29" vertex="1">
          <mxGeometry width="30" height="30" as="geometry">
            <mxRectangle width="30" height="30" as="alternateBounds" />
          </mxGeometry>
        </mxCell>
        <mxCell id="WMk4B9uy6Fu5YuTfyZZx-31" value="&lt;span style=&quot;background-color: initial;&quot;&gt;media_id int(11) not null&lt;/span&gt;" style="shape=partialRectangle;connectable=0;fillColor=none;top=0;left=0;bottom=0;right=0;align=left;spacingLeft=6;fontStyle=5;overflow=hidden;whiteSpace=wrap;html=1;" parent="WMk4B9uy6Fu5YuTfyZZx-29" vertex="1">
          <mxGeometry x="30" width="250" height="30" as="geometry">
            <mxRectangle width="250" height="30" as="alternateBounds" />
          </mxGeometry>
        </mxCell>
        <mxCell id="WMk4B9uy6Fu5YuTfyZZx-38" value="" style="shape=tableRow;horizontal=0;startSize=0;swimlaneHead=0;swimlaneBody=0;fillColor=none;collapsible=0;dropTarget=0;points=[[0,0.5],[1,0.5]];portConstraint=eastwest;top=0;left=0;right=0;bottom=0;" parent="WMk4B9uy6Fu5YuTfyZZx-25" vertex="1">
          <mxGeometry y="90" width="280" height="30" as="geometry" />
        </mxCell>
        <mxCell id="WMk4B9uy6Fu5YuTfyZZx-39" value="FK" style="shape=partialRectangle;connectable=0;fillColor=none;top=0;left=0;bottom=0;right=0;editable=1;overflow=hidden;" parent="WMk4B9uy6Fu5YuTfyZZx-38" vertex="1">
          <mxGeometry width="30" height="30" as="geometry">
            <mxRectangle width="30" height="30" as="alternateBounds" />
          </mxGeometry>
        </mxCell>
        <mxCell id="WMk4B9uy6Fu5YuTfyZZx-40" value="subtitle_id int(11) null" style="shape=partialRectangle;connectable=0;fillColor=none;top=0;left=0;bottom=0;right=0;align=left;spacingLeft=6;overflow=hidden;" parent="WMk4B9uy6Fu5YuTfyZZx-38" vertex="1">
          <mxGeometry x="30" width="250" height="30" as="geometry">
            <mxRectangle width="250" height="30" as="alternateBounds" />
          </mxGeometry>
        </mxCell>
        <mxCell id="WMk4B9uy6Fu5YuTfyZZx-47" value="" style="shape=tableRow;horizontal=0;startSize=0;swimlaneHead=0;swimlaneBody=0;fillColor=none;collapsible=0;dropTarget=0;points=[[0,0.5],[1,0.5]];portConstraint=eastwest;top=0;left=0;right=0;bottom=0;" parent="WMk4B9uy6Fu5YuTfyZZx-25" vertex="1">
          <mxGeometry y="120" width="280" height="30" as="geometry" />
        </mxCell>
        <mxCell id="WMk4B9uy6Fu5YuTfyZZx-48" value="" style="shape=partialRectangle;connectable=0;fillColor=none;top=0;left=0;bottom=0;right=0;editable=1;overflow=hidden;" parent="WMk4B9uy6Fu5YuTfyZZx-47" vertex="1">
          <mxGeometry width="30" height="30" as="geometry">
            <mxRectangle width="30" height="30" as="alternateBounds" />
          </mxGeometry>
        </mxCell>
        <mxCell id="WMk4B9uy6Fu5YuTfyZZx-49" value="pause_spot time not null default &#39;00:00:00&#39;" style="shape=partialRectangle;connectable=0;fillColor=none;top=0;left=0;bottom=0;right=0;align=left;spacingLeft=6;overflow=hidden;" parent="WMk4B9uy6Fu5YuTfyZZx-47" vertex="1">
          <mxGeometry x="30" width="250" height="30" as="geometry">
            <mxRectangle width="250" height="30" as="alternateBounds" />
          </mxGeometry>
        </mxCell>
        <mxCell id="WMk4B9uy6Fu5YuTfyZZx-44" value="" style="shape=tableRow;horizontal=0;startSize=0;swimlaneHead=0;swimlaneBody=0;fillColor=none;collapsible=0;dropTarget=0;points=[[0,0.5],[1,0.5]];portConstraint=eastwest;top=0;left=0;right=0;bottom=0;" parent="WMk4B9uy6Fu5YuTfyZZx-25" vertex="1">
          <mxGeometry y="150" width="280" height="30" as="geometry" />
        </mxCell>
        <mxCell id="WMk4B9uy6Fu5YuTfyZZx-45" value="" style="shape=partialRectangle;connectable=0;fillColor=none;top=0;left=0;bottom=0;right=0;editable=1;overflow=hidden;" parent="WMk4B9uy6Fu5YuTfyZZx-44" vertex="1">
          <mxGeometry width="30" height="30" as="geometry">
            <mxRectangle width="30" height="30" as="alternateBounds" />
          </mxGeometry>
        </mxCell>
        <mxCell id="WMk4B9uy6Fu5YuTfyZZx-46" value="times_watched int(11) default &#39;0&#39;" style="shape=partialRectangle;connectable=0;fillColor=none;top=0;left=0;bottom=0;right=0;align=left;spacingLeft=6;overflow=hidden;" parent="WMk4B9uy6Fu5YuTfyZZx-44" vertex="1">
          <mxGeometry x="30" width="250" height="30" as="geometry">
            <mxRectangle width="250" height="30" as="alternateBounds" />
          </mxGeometry>
        </mxCell>
        <mxCell id="WMk4B9uy6Fu5YuTfyZZx-41" value="" style="shape=tableRow;horizontal=0;startSize=0;swimlaneHead=0;swimlaneBody=0;fillColor=none;collapsible=0;dropTarget=0;points=[[0,0.5],[1,0.5]];portConstraint=eastwest;top=0;left=0;right=0;bottom=0;" parent="WMk4B9uy6Fu5YuTfyZZx-25" vertex="1">
          <mxGeometry y="180" width="280" height="30" as="geometry" />
        </mxCell>
        <mxCell id="WMk4B9uy6Fu5YuTfyZZx-42" value="" style="shape=partialRectangle;connectable=0;fillColor=none;top=0;left=0;bottom=0;right=0;editable=1;overflow=hidden;" parent="WMk4B9uy6Fu5YuTfyZZx-41" vertex="1">
          <mxGeometry width="30" height="30" as="geometry">
            <mxRectangle width="30" height="30" as="alternateBounds" />
          </mxGeometry>
        </mxCell>
        <mxCell id="WMk4B9uy6Fu5YuTfyZZx-43" value="last_watch_date date null" style="shape=partialRectangle;connectable=0;fillColor=none;top=0;left=0;bottom=0;right=0;align=left;spacingLeft=6;overflow=hidden;" parent="WMk4B9uy6Fu5YuTfyZZx-41" vertex="1">
          <mxGeometry x="30" width="250" height="30" as="geometry">
            <mxRectangle width="250" height="30" as="alternateBounds" />
          </mxGeometry>
        </mxCell>
        <mxCell id="WMk4B9uy6Fu5YuTfyZZx-55" value="Profile_Watch_List" style="shape=table;startSize=30;container=1;collapsible=1;childLayout=tableLayout;fixedRows=1;rowLines=0;fontStyle=1;align=center;resizeLast=1;html=1;" parent="1" vertex="1">
          <mxGeometry x="-767" y="135" width="247.5" height="153" as="geometry" />
        </mxCell>
        <mxCell id="KhRuVNSM4Y47WzPQw1CD-1" value="" style="shape=tableRow;horizontal=0;startSize=0;swimlaneHead=0;swimlaneBody=0;fillColor=none;collapsible=0;dropTarget=0;points=[[0,0.5],[1,0.5]];portConstraint=eastwest;top=0;left=0;right=0;bottom=1;" parent="WMk4B9uy6Fu5YuTfyZZx-55" vertex="1">
          <mxGeometry y="30" width="247.5" height="30" as="geometry" />
        </mxCell>
        <mxCell id="KhRuVNSM4Y47WzPQw1CD-2" value="PK" style="shape=partialRectangle;connectable=0;fillColor=none;top=0;left=0;bottom=0;right=0;fontStyle=1;overflow=hidden;whiteSpace=wrap;html=1;" parent="KhRuVNSM4Y47WzPQw1CD-1" vertex="1">
          <mxGeometry width="30" height="30" as="geometry">
            <mxRectangle width="30" height="30" as="alternateBounds" />
          </mxGeometry>
        </mxCell>
        <mxCell id="KhRuVNSM4Y47WzPQw1CD-3" value="list_id int(11) not null" style="shape=partialRectangle;connectable=0;fillColor=none;top=0;left=0;bottom=0;right=0;align=left;spacingLeft=6;fontStyle=5;overflow=hidden;whiteSpace=wrap;html=1;" parent="KhRuVNSM4Y47WzPQw1CD-1" vertex="1">
          <mxGeometry x="30" width="217.5" height="30" as="geometry">
            <mxRectangle width="217.5" height="30" as="alternateBounds" />
          </mxGeometry>
        </mxCell>
        <mxCell id="WMk4B9uy6Fu5YuTfyZZx-56" value="" style="shape=tableRow;horizontal=0;startSize=0;swimlaneHead=0;swimlaneBody=0;fillColor=none;collapsible=0;dropTarget=0;points=[[0,0.5],[1,0.5]];portConstraint=eastwest;top=0;left=0;right=0;bottom=1;" parent="WMk4B9uy6Fu5YuTfyZZx-55" vertex="1">
          <mxGeometry y="60" width="247.5" height="33" as="geometry" />
        </mxCell>
        <mxCell id="WMk4B9uy6Fu5YuTfyZZx-57" value="PK, FK" style="shape=partialRectangle;connectable=0;fillColor=none;top=0;left=0;bottom=0;right=0;fontStyle=1;overflow=hidden;whiteSpace=wrap;html=1;" parent="WMk4B9uy6Fu5YuTfyZZx-56" vertex="1">
          <mxGeometry width="30" height="33" as="geometry">
            <mxRectangle width="30" height="33" as="alternateBounds" />
          </mxGeometry>
        </mxCell>
        <mxCell id="WMk4B9uy6Fu5YuTfyZZx-58" value="profile_id int(11) not null" style="shape=partialRectangle;connectable=0;fillColor=none;top=0;left=0;bottom=0;right=0;align=left;spacingLeft=6;fontStyle=5;overflow=hidden;whiteSpace=wrap;html=1;" parent="WMk4B9uy6Fu5YuTfyZZx-56" vertex="1">
          <mxGeometry x="30" width="217.5" height="33" as="geometry">
            <mxRectangle width="217.5" height="33" as="alternateBounds" />
          </mxGeometry>
        </mxCell>
        <mxCell id="KhRuVNSM4Y47WzPQw1CD-10" value="" style="shape=tableRow;horizontal=0;startSize=0;swimlaneHead=0;swimlaneBody=0;fillColor=none;collapsible=0;dropTarget=0;points=[[0,0.5],[1,0.5]];portConstraint=eastwest;top=0;left=0;right=0;bottom=0;" parent="WMk4B9uy6Fu5YuTfyZZx-55" vertex="1">
          <mxGeometry y="93" width="247.5" height="30" as="geometry" />
        </mxCell>
        <mxCell id="KhRuVNSM4Y47WzPQw1CD-11" value="FK" style="shape=partialRectangle;connectable=0;fillColor=none;top=0;left=0;bottom=0;right=0;fontStyle=0;overflow=hidden;whiteSpace=wrap;html=1;" parent="KhRuVNSM4Y47WzPQw1CD-10" vertex="1">
          <mxGeometry width="30" height="30" as="geometry">
            <mxRectangle width="30" height="30" as="alternateBounds" />
          </mxGeometry>
        </mxCell>
        <mxCell id="KhRuVNSM4Y47WzPQw1CD-12" value="media_id int(11) null" style="shape=partialRectangle;connectable=0;fillColor=none;top=0;left=0;bottom=0;right=0;align=left;spacingLeft=6;fontStyle=0;overflow=hidden;whiteSpace=wrap;html=1;" parent="KhRuVNSM4Y47WzPQw1CD-10" vertex="1">
          <mxGeometry x="30" width="217.5" height="30" as="geometry">
            <mxRectangle width="217.5" height="30" as="alternateBounds" />
          </mxGeometry>
        </mxCell>
        <mxCell id="KhRuVNSM4Y47WzPQw1CD-14" value="" style="shape=tableRow;horizontal=0;startSize=0;swimlaneHead=0;swimlaneBody=0;fillColor=none;collapsible=0;dropTarget=0;points=[[0,0.5],[1,0.5]];portConstraint=eastwest;top=0;left=0;right=0;bottom=0;" parent="WMk4B9uy6Fu5YuTfyZZx-55" vertex="1">
          <mxGeometry y="123" width="247.5" height="30" as="geometry" />
        </mxCell>
        <mxCell id="KhRuVNSM4Y47WzPQw1CD-15" value="FK" style="shape=partialRectangle;connectable=0;fillColor=none;top=0;left=0;bottom=0;right=0;fontStyle=0;overflow=hidden;whiteSpace=wrap;html=1;" parent="KhRuVNSM4Y47WzPQw1CD-14" vertex="1">
          <mxGeometry width="30" height="30" as="geometry">
            <mxRectangle width="30" height="30" as="alternateBounds" />
          </mxGeometry>
        </mxCell>
        <mxCell id="KhRuVNSM4Y47WzPQw1CD-16" value="series_id int(11) null" style="shape=partialRectangle;connectable=0;fillColor=none;top=0;left=0;bottom=0;right=0;align=left;spacingLeft=6;fontStyle=0;overflow=hidden;whiteSpace=wrap;html=1;" parent="KhRuVNSM4Y47WzPQw1CD-14" vertex="1">
          <mxGeometry x="30" width="217.5" height="30" as="geometry">
            <mxRectangle width="217.5" height="30" as="alternateBounds" />
          </mxGeometry>
        </mxCell>
        <mxCell id="g8e5XlMLSvzIOXMj55Qc-1" value="" style="fontSize=12;html=1;endArrow=ERzeroToMany;startArrow=ERmandOne;rounded=0;startSize=8;endSize=8;exitX=0.5;exitY=0;exitDx=0;exitDy=0;entryX=0.506;entryY=0.999;entryDx=0;entryDy=0;entryPerimeter=0;" parent="1" source="xZmK3IjfuJ7G6EqLBc_R-109" target="WMk4B9uy6Fu5YuTfyZZx-18" edge="1">
          <mxGeometry width="100" height="100" relative="1" as="geometry">
            <mxPoint x="65" y="320" as="sourcePoint" />
            <mxPoint x="131" y="178" as="targetPoint" />
          </mxGeometry>
        </mxCell>
        <mxCell id="g8e5XlMLSvzIOXMj55Qc-2" value="" style="fontSize=12;html=1;endArrow=ERzeroToMany;startArrow=ERmandOne;rounded=0;startSize=8;endSize=8;entryX=0.817;entryY=1.002;entryDx=0;entryDy=0;entryPerimeter=0;edgeStyle=orthogonalEdgeStyle;" parent="1" source="xZmK3IjfuJ7G6EqLBc_R-42" target="WMk4B9uy6Fu5YuTfyZZx-18" edge="1">
          <mxGeometry width="100" height="100" relative="1" as="geometry">
            <mxPoint x="368" y="351" as="sourcePoint" />
            <mxPoint x="360" y="90" as="targetPoint" />
          </mxGeometry>
        </mxCell>
        <mxCell id="g8e5XlMLSvzIOXMj55Qc-3" value="" style="fontSize=12;html=1;endArrow=ERzeroToMany;startArrow=ERmandOne;rounded=0;startSize=8;endSize=8;exitX=0.002;exitY=0.931;exitDx=0;exitDy=0;entryX=1;entryY=0.5;entryDx=0;entryDy=0;exitPerimeter=0;edgeStyle=elbowEdgeStyle;" parent="1" source="xZmK3IjfuJ7G6EqLBc_R-45" target="WMk4B9uy6Fu5YuTfyZZx-38" edge="1">
          <mxGeometry width="100" height="100" relative="1" as="geometry">
            <mxPoint x="447" y="354" as="sourcePoint" />
            <mxPoint x="190" y="350" as="targetPoint" />
          </mxGeometry>
        </mxCell>
        <mxCell id="g8e5XlMLSvzIOXMj55Qc-6" value="" style="fontSize=12;html=1;endArrow=ERzeroToMany;startArrow=ERmandOne;rounded=0;exitX=0;exitY=0.5;exitDx=0;exitDy=0;" parent="1" source="Y_65aHJJYKN84D6p4-pK-11" edge="1">
          <mxGeometry width="100" height="100" relative="1" as="geometry">
            <mxPoint x="510" y="275" as="sourcePoint" />
            <mxPoint x="-519.5" y="243.2146108822892" as="targetPoint" />
          </mxGeometry>
        </mxCell>
        <mxCell id="MPkvroIZ___8RP_UTMzN-14" value="Discounted_Users" style="shape=table;startSize=30;container=1;collapsible=1;childLayout=tableLayout;fixedRows=1;rowLines=0;fontStyle=1;align=center;resizeLast=1;html=1;whiteSpace=wrap;" parent="1" vertex="1">
          <mxGeometry y="-481" width="294.25" height="89.41175752527596" as="geometry" />
        </mxCell>
        <mxCell id="MPkvroIZ___8RP_UTMzN-15" value="" style="shape=tableRow;horizontal=0;startSize=0;swimlaneHead=0;swimlaneBody=0;fillColor=none;collapsible=0;dropTarget=0;points=[[0,0.5],[1,0.5]];portConstraint=eastwest;top=0;left=0;right=0;bottom=0;html=1;" parent="MPkvroIZ___8RP_UTMzN-14" vertex="1">
          <mxGeometry y="30" width="294.25" height="30" as="geometry" />
        </mxCell>
        <mxCell id="MPkvroIZ___8RP_UTMzN-16" value="PK, FK" style="shape=partialRectangle;connectable=0;fillColor=none;top=0;left=0;bottom=0;right=0;fontStyle=1;overflow=hidden;html=1;whiteSpace=wrap;" parent="MPkvroIZ___8RP_UTMzN-15" vertex="1">
          <mxGeometry width="60" height="30" as="geometry">
            <mxRectangle width="60" height="30" as="alternateBounds" />
          </mxGeometry>
        </mxCell>
        <mxCell id="MPkvroIZ___8RP_UTMzN-17" value="account_id int(11) not null" style="shape=partialRectangle;connectable=0;fillColor=none;top=0;left=0;bottom=0;right=0;align=left;spacingLeft=6;fontStyle=5;overflow=hidden;html=1;whiteSpace=wrap;" parent="MPkvroIZ___8RP_UTMzN-15" vertex="1">
          <mxGeometry x="60" width="234.25" height="30" as="geometry">
            <mxRectangle width="234.25" height="30" as="alternateBounds" />
          </mxGeometry>
        </mxCell>
        <mxCell id="MPkvroIZ___8RP_UTMzN-18" value="" style="shape=tableRow;horizontal=0;startSize=0;swimlaneHead=0;swimlaneBody=0;fillColor=none;collapsible=0;dropTarget=0;points=[[0,0.5],[1,0.5]];portConstraint=eastwest;top=0;left=0;right=0;bottom=1;html=1;" parent="MPkvroIZ___8RP_UTMzN-14" vertex="1">
          <mxGeometry y="60" width="294.25" height="29" as="geometry" />
        </mxCell>
        <mxCell id="MPkvroIZ___8RP_UTMzN-19" value="PK, FK" style="shape=partialRectangle;connectable=0;fillColor=none;top=0;left=0;bottom=0;right=0;fontStyle=1;overflow=hidden;html=1;whiteSpace=wrap;" parent="MPkvroIZ___8RP_UTMzN-18" vertex="1">
          <mxGeometry width="60" height="29" as="geometry">
            <mxRectangle width="60" height="29" as="alternateBounds" />
          </mxGeometry>
        </mxCell>
        <mxCell id="MPkvroIZ___8RP_UTMzN-20" value="invited_account_id int(11) not null" style="shape=partialRectangle;connectable=0;fillColor=none;top=0;left=0;bottom=0;right=0;align=left;spacingLeft=6;fontStyle=5;overflow=hidden;html=1;whiteSpace=wrap;" parent="MPkvroIZ___8RP_UTMzN-18" vertex="1">
          <mxGeometry x="60" width="234.25" height="29" as="geometry">
            <mxRectangle width="234.25" height="29" as="alternateBounds" />
          </mxGeometry>
        </mxCell>
        <mxCell id="MPkvroIZ___8RP_UTMzN-27" value="" style="fontSize=12;html=1;endArrow=ERmandOne;startArrow=ERmandOne;rounded=0;entryX=0.249;entryY=1.053;entryDx=0;entryDy=0;entryPerimeter=0;exitX=0.25;exitY=0;exitDx=0;exitDy=0;" parent="1" source="C-vyLk0tnHw3VtMMgP7b-23" target="MPkvroIZ___8RP_UTMzN-18" edge="1">
          <mxGeometry width="100" height="100" relative="1" as="geometry">
            <mxPoint x="490" y="-270" as="sourcePoint" />
            <mxPoint x="590" y="-370" as="targetPoint" />
          </mxGeometry>
        </mxCell>
        <mxCell id="XaDpsOBtemNNsNq5cKj4-5" value="" style="fontSize=12;html=1;endArrow=ERmandOne;startArrow=ERmandOne;rounded=0;entryX=0.7;entryY=0.896;entryDx=0;entryDy=0;entryPerimeter=0;exitX=0.686;exitY=-0.001;exitDx=0;exitDy=0;exitPerimeter=0;" parent="1" source="C-vyLk0tnHw3VtMMgP7b-23" target="MPkvroIZ___8RP_UTMzN-18" edge="1">
          <mxGeometry width="100" height="100" relative="1" as="geometry">
            <mxPoint x="275" y="-331" as="sourcePoint" />
            <mxPoint x="375" y="-431" as="targetPoint" />
          </mxGeometry>
        </mxCell>
        <mxCell id="XaDpsOBtemNNsNq5cKj4-24" value="Media" style="shape=table;startSize=30;container=1;collapsible=1;childLayout=tableLayout;fixedRows=1;rowLines=0;fontStyle=1;align=center;resizeLast=1;html=1;" parent="1" vertex="1">
          <mxGeometry x="22.25" y="1322" width="262.75" height="210" as="geometry" />
        </mxCell>
        <mxCell id="XaDpsOBtemNNsNq5cKj4-25" value="" style="shape=tableRow;horizontal=0;startSize=0;swimlaneHead=0;swimlaneBody=0;fillColor=none;collapsible=0;dropTarget=0;points=[[0,0.5],[1,0.5]];portConstraint=eastwest;top=0;left=0;right=0;bottom=1;" parent="XaDpsOBtemNNsNq5cKj4-24" vertex="1">
          <mxGeometry y="30" width="262.75" height="30" as="geometry" />
        </mxCell>
        <mxCell id="XaDpsOBtemNNsNq5cKj4-26" value="PK" style="shape=partialRectangle;connectable=0;fillColor=none;top=0;left=0;bottom=0;right=0;fontStyle=1;overflow=hidden;whiteSpace=wrap;html=1;" parent="XaDpsOBtemNNsNq5cKj4-25" vertex="1">
          <mxGeometry width="30" height="30" as="geometry">
            <mxRectangle width="30" height="30" as="alternateBounds" />
          </mxGeometry>
        </mxCell>
        <mxCell id="XaDpsOBtemNNsNq5cKj4-27" value="media_id int(11) not null" style="shape=partialRectangle;connectable=0;fillColor=none;top=0;left=0;bottom=0;right=0;align=left;spacingLeft=6;fontStyle=5;overflow=hidden;whiteSpace=wrap;html=1;" parent="XaDpsOBtemNNsNq5cKj4-25" vertex="1">
          <mxGeometry x="30" width="232.75" height="30" as="geometry">
            <mxRectangle width="232.75" height="30" as="alternateBounds" />
          </mxGeometry>
        </mxCell>
        <mxCell id="XaDpsOBtemNNsNq5cKj4-28" value="" style="shape=tableRow;horizontal=0;startSize=0;swimlaneHead=0;swimlaneBody=0;fillColor=none;collapsible=0;dropTarget=0;points=[[0,0.5],[1,0.5]];portConstraint=eastwest;top=0;left=0;right=0;bottom=0;" parent="XaDpsOBtemNNsNq5cKj4-24" vertex="1">
          <mxGeometry y="60" width="262.75" height="30" as="geometry" />
        </mxCell>
        <mxCell id="XaDpsOBtemNNsNq5cKj4-29" value="" style="shape=partialRectangle;connectable=0;fillColor=none;top=0;left=0;bottom=0;right=0;editable=1;overflow=hidden;whiteSpace=wrap;html=1;" parent="XaDpsOBtemNNsNq5cKj4-28" vertex="1">
          <mxGeometry width="30" height="30" as="geometry">
            <mxRectangle width="30" height="30" as="alternateBounds" />
          </mxGeometry>
        </mxCell>
        <mxCell id="XaDpsOBtemNNsNq5cKj4-30" value="title varchar(255) not null" style="shape=partialRectangle;connectable=0;fillColor=none;top=0;left=0;bottom=0;right=0;align=left;spacingLeft=6;overflow=hidden;whiteSpace=wrap;html=1;" parent="XaDpsOBtemNNsNq5cKj4-28" vertex="1">
          <mxGeometry x="30" width="232.75" height="30" as="geometry">
            <mxRectangle width="232.75" height="30" as="alternateBounds" />
          </mxGeometry>
        </mxCell>
        <mxCell id="Ti9CZ3-ndMk54ntmwThr-1" value="" style="shape=tableRow;horizontal=0;startSize=0;swimlaneHead=0;swimlaneBody=0;fillColor=none;collapsible=0;dropTarget=0;points=[[0,0.5],[1,0.5]];portConstraint=eastwest;top=0;left=0;right=0;bottom=0;" parent="XaDpsOBtemNNsNq5cKj4-24" vertex="1">
          <mxGeometry y="90" width="262.75" height="30" as="geometry" />
        </mxCell>
        <mxCell id="Ti9CZ3-ndMk54ntmwThr-2" value="" style="shape=partialRectangle;connectable=0;fillColor=none;top=0;left=0;bottom=0;right=0;editable=1;overflow=hidden;" parent="Ti9CZ3-ndMk54ntmwThr-1" vertex="1">
          <mxGeometry width="30" height="30" as="geometry">
            <mxRectangle width="30" height="30" as="alternateBounds" />
          </mxGeometry>
        </mxCell>
        <mxCell id="Ti9CZ3-ndMk54ntmwThr-3" value="series_id int(11) null" style="shape=partialRectangle;connectable=0;fillColor=none;top=0;left=0;bottom=0;right=0;align=left;spacingLeft=6;overflow=hidden;" parent="Ti9CZ3-ndMk54ntmwThr-1" vertex="1">
          <mxGeometry x="30" width="232.75" height="30" as="geometry">
            <mxRectangle width="232.75" height="30" as="alternateBounds" />
          </mxGeometry>
        </mxCell>
        <mxCell id="Ti9CZ3-ndMk54ntmwThr-21" value="" style="shape=tableRow;horizontal=0;startSize=0;swimlaneHead=0;swimlaneBody=0;fillColor=none;collapsible=0;dropTarget=0;points=[[0,0.5],[1,0.5]];portConstraint=eastwest;top=0;left=0;right=0;bottom=0;" parent="XaDpsOBtemNNsNq5cKj4-24" vertex="1">
          <mxGeometry y="120" width="262.75" height="30" as="geometry" />
        </mxCell>
        <mxCell id="Ti9CZ3-ndMk54ntmwThr-22" value="" style="shape=partialRectangle;connectable=0;fillColor=none;top=0;left=0;bottom=0;right=0;editable=1;overflow=hidden;" parent="Ti9CZ3-ndMk54ntmwThr-21" vertex="1">
          <mxGeometry width="30" height="30" as="geometry">
            <mxRectangle width="30" height="30" as="alternateBounds" />
          </mxGeometry>
        </mxCell>
        <mxCell id="Ti9CZ3-ndMk54ntmwThr-23" value="season int(11) null" style="shape=partialRectangle;connectable=0;fillColor=none;top=0;left=0;bottom=0;right=0;align=left;spacingLeft=6;overflow=hidden;" parent="Ti9CZ3-ndMk54ntmwThr-21" vertex="1">
          <mxGeometry x="30" width="232.75" height="30" as="geometry">
            <mxRectangle width="232.75" height="30" as="alternateBounds" />
          </mxGeometry>
        </mxCell>
        <mxCell id="Ti9CZ3-ndMk54ntmwThr-24" value="" style="shape=tableRow;horizontal=0;startSize=0;swimlaneHead=0;swimlaneBody=0;fillColor=none;collapsible=0;dropTarget=0;points=[[0,0.5],[1,0.5]];portConstraint=eastwest;top=0;left=0;right=0;bottom=0;" parent="XaDpsOBtemNNsNq5cKj4-24" vertex="1">
          <mxGeometry y="150" width="262.75" height="30" as="geometry" />
        </mxCell>
        <mxCell id="Ti9CZ3-ndMk54ntmwThr-25" value="FK" style="shape=partialRectangle;connectable=0;fillColor=none;top=0;left=0;bottom=0;right=0;fontStyle=0;overflow=hidden;whiteSpace=wrap;html=1;" parent="Ti9CZ3-ndMk54ntmwThr-24" vertex="1">
          <mxGeometry width="30" height="30" as="geometry">
            <mxRectangle width="30" height="30" as="alternateBounds" />
          </mxGeometry>
        </mxCell>
        <mxCell id="Ti9CZ3-ndMk54ntmwThr-26" value="genre_id int(11) null" style="shape=partialRectangle;connectable=0;fillColor=none;top=0;left=0;bottom=0;right=0;align=left;spacingLeft=6;fontStyle=0;overflow=hidden;whiteSpace=wrap;html=1;" parent="Ti9CZ3-ndMk54ntmwThr-24" vertex="1">
          <mxGeometry x="30" width="232.75" height="30" as="geometry">
            <mxRectangle width="232.75" height="30" as="alternateBounds" />
          </mxGeometry>
        </mxCell>
        <mxCell id="XaDpsOBtemNNsNq5cKj4-31" value="" style="shape=tableRow;horizontal=0;startSize=0;swimlaneHead=0;swimlaneBody=0;fillColor=none;collapsible=0;dropTarget=0;points=[[0,0.5],[1,0.5]];portConstraint=eastwest;top=0;left=0;right=0;bottom=0;" parent="XaDpsOBtemNNsNq5cKj4-24" vertex="1">
          <mxGeometry y="180" width="262.75" height="30" as="geometry" />
        </mxCell>
        <mxCell id="XaDpsOBtemNNsNq5cKj4-32" value="" style="shape=partialRectangle;connectable=0;fillColor=none;top=0;left=0;bottom=0;right=0;editable=1;overflow=hidden;whiteSpace=wrap;html=1;" parent="XaDpsOBtemNNsNq5cKj4-31" vertex="1">
          <mxGeometry width="30" height="30" as="geometry">
            <mxRectangle width="30" height="30" as="alternateBounds" />
          </mxGeometry>
        </mxCell>
        <mxCell id="XaDpsOBtemNNsNq5cKj4-33" value="duration time not null default &#39;00:00:00&#39;" style="shape=partialRectangle;connectable=0;fillColor=none;top=0;left=0;bottom=0;right=0;align=left;spacingLeft=6;overflow=hidden;whiteSpace=wrap;html=1;" parent="XaDpsOBtemNNsNq5cKj4-31" vertex="1">
          <mxGeometry x="30" width="232.75" height="30" as="geometry">
            <mxRectangle width="232.75" height="30" as="alternateBounds" />
          </mxGeometry>
        </mxCell>
        <mxCell id="XaDpsOBtemNNsNq5cKj4-38" value="" style="edgeStyle=orthogonalEdgeStyle;fontSize=12;html=1;endArrow=ERzeroToMany;startArrow=ERmandOne;rounded=0;exitX=1;exitY=0.5;exitDx=0;exitDy=0;entryX=1;entryY=0.5;entryDx=0;entryDy=0;" parent="1" source="XaDpsOBtemNNsNq5cKj4-25" target="xZmK3IjfuJ7G6EqLBc_R-110" edge="1">
          <mxGeometry width="100" height="100" relative="1" as="geometry">
            <mxPoint x="329" y="1408" as="sourcePoint" />
            <mxPoint x="467.3209999999999" y="670.75" as="targetPoint" />
            <Array as="points">
              <mxPoint x="432" y="1367" />
              <mxPoint x="432" y="575" />
            </Array>
          </mxGeometry>
        </mxCell>
        <mxCell id="XaDpsOBtemNNsNq5cKj4-39" value="" style="edgeStyle=orthogonalEdgeStyle;fontSize=12;html=1;endArrow=ERzeroToMany;startArrow=ERmandOne;rounded=0;exitX=0;exitY=0.5;exitDx=0;exitDy=0;entryX=0.418;entryY=1.095;entryDx=0;entryDy=0;entryPerimeter=0;" parent="1" source="XaDpsOBtemNNsNq5cKj4-25" target="WMk4B9uy6Fu5YuTfyZZx-41" edge="1">
          <mxGeometry width="100" height="100" relative="1" as="geometry">
            <mxPoint x="-241" y="1126" as="sourcePoint" />
            <mxPoint x="-297" y="565" as="targetPoint" />
            <Array as="points">
              <mxPoint x="-201" y="1367" />
              <mxPoint x="-201" y="763" />
              <mxPoint x="-328" y="763" />
            </Array>
          </mxGeometry>
        </mxCell>
        <mxCell id="KhRuVNSM4Y47WzPQw1CD-19" value="" style="edgeStyle=orthogonalEdgeStyle;fontSize=12;html=1;endArrow=ERzeroToMany;startArrow=ERmandOne;rounded=0;exitX=0;exitY=0.5;exitDx=0;exitDy=0;entryX=0.649;entryY=1.051;entryDx=0;entryDy=0;entryPerimeter=0;" parent="1" source="Ti9CZ3-ndMk54ntmwThr-21" target="KhRuVNSM4Y47WzPQw1CD-14" edge="1">
          <mxGeometry width="100" height="100" relative="1" as="geometry">
            <mxPoint x="410" y="655" as="sourcePoint" />
            <mxPoint x="-414" y="640" as="targetPoint" />
            <Array as="points">
              <mxPoint x="-125" y="1457" />
              <mxPoint x="-125" y="655" />
              <mxPoint x="-606" y="655" />
            </Array>
          </mxGeometry>
        </mxCell>
        <mxCell id="KhRuVNSM4Y47WzPQw1CD-20" value="" style="edgeStyle=orthogonalEdgeStyle;fontSize=12;html=1;endArrow=ERzeroToMany;startArrow=ERmandOne;rounded=0;exitX=0;exitY=0.5;exitDx=0;exitDy=0;entryX=0.18;entryY=0.98;entryDx=0;entryDy=0;entryPerimeter=0;" parent="1" source="xZmK3IjfuJ7G6EqLBc_R-97" target="KhRuVNSM4Y47WzPQw1CD-14" edge="1">
          <mxGeometry width="100" height="100" relative="1" as="geometry">
            <mxPoint x="-504" y="750" as="sourcePoint" />
            <mxPoint x="-404" y="650" as="targetPoint" />
          </mxGeometry>
        </mxCell>
        <mxCell id="loFsdL5X8oIYdU03bZoQ-1" value="" style="edgeStyle=orthogonalEdgeStyle;fontSize=12;html=1;endArrow=ERzeroToMany;startArrow=ERmandOne;rounded=0;exitX=0.399;exitY=0.004;exitDx=0;exitDy=0;exitPerimeter=0;entryX=1;entryY=0.5;entryDx=0;entryDy=0;" parent="1" source="xZmK3IjfuJ7G6EqLBc_R-122" target="WMk4B9uy6Fu5YuTfyZZx-44" edge="1">
          <mxGeometry width="100" height="100" relative="1" as="geometry">
            <mxPoint x="285" y="1051" as="sourcePoint" />
            <mxPoint x="-150" y="990" as="targetPoint" />
            <Array as="points">
              <mxPoint x="663" y="1024" />
              <mxPoint x="-82" y="1024" />
              <mxPoint x="-82" y="455" />
            </Array>
          </mxGeometry>
        </mxCell>
        <mxCell id="Ti9CZ3-ndMk54ntmwThr-7" value="Media_Quality" style="shape=table;startSize=30;container=1;collapsible=1;childLayout=tableLayout;fixedRows=1;rowLines=0;fontStyle=1;align=center;resizeLast=1;html=1;" parent="1" vertex="1">
          <mxGeometry x="1" y="1693" width="326.550048828125" height="155.34991455078125" as="geometry" />
        </mxCell>
        <mxCell id="Ti9CZ3-ndMk54ntmwThr-8" value="" style="shape=tableRow;horizontal=0;startSize=0;swimlaneHead=0;swimlaneBody=0;fillColor=none;collapsible=0;dropTarget=0;points=[[0,0.5],[1,0.5]];portConstraint=eastwest;top=0;left=0;right=0;bottom=1;" parent="Ti9CZ3-ndMk54ntmwThr-7" vertex="1">
          <mxGeometry y="30" width="326.550048828125" height="30" as="geometry" />
        </mxCell>
        <mxCell id="Ti9CZ3-ndMk54ntmwThr-9" value="PK, FK" style="shape=partialRectangle;connectable=0;fillColor=none;top=0;left=0;bottom=0;right=0;fontStyle=1;overflow=hidden;whiteSpace=wrap;html=1;" parent="Ti9CZ3-ndMk54ntmwThr-8" vertex="1">
          <mxGeometry width="30" height="30" as="geometry">
            <mxRectangle width="30" height="30" as="alternateBounds" />
          </mxGeometry>
        </mxCell>
        <mxCell id="Ti9CZ3-ndMk54ntmwThr-10" value="media_id int(11) not null" style="shape=partialRectangle;connectable=0;fillColor=none;top=0;left=0;bottom=0;right=0;align=left;spacingLeft=6;fontStyle=5;overflow=hidden;whiteSpace=wrap;html=1;" parent="Ti9CZ3-ndMk54ntmwThr-8" vertex="1">
          <mxGeometry x="30" width="296.550048828125" height="30" as="geometry">
            <mxRectangle width="296.550048828125" height="30" as="alternateBounds" />
          </mxGeometry>
        </mxCell>
        <mxCell id="Ti9CZ3-ndMk54ntmwThr-11" value="" style="shape=tableRow;horizontal=0;startSize=0;swimlaneHead=0;swimlaneBody=0;fillColor=none;collapsible=0;dropTarget=0;points=[[0,0.5],[1,0.5]];portConstraint=eastwest;top=0;left=0;right=0;bottom=0;" parent="Ti9CZ3-ndMk54ntmwThr-7" vertex="1">
          <mxGeometry y="60" width="326.550048828125" height="35" as="geometry" />
        </mxCell>
        <mxCell id="Ti9CZ3-ndMk54ntmwThr-12" value="" style="shape=partialRectangle;connectable=0;fillColor=none;top=0;left=0;bottom=0;right=0;editable=1;overflow=hidden;whiteSpace=wrap;html=1;" parent="Ti9CZ3-ndMk54ntmwThr-11" vertex="1">
          <mxGeometry width="30" height="35" as="geometry">
            <mxRectangle width="30" height="35" as="alternateBounds" />
          </mxGeometry>
        </mxCell>
        <mxCell id="Ti9CZ3-ndMk54ntmwThr-13" value="&lt;span style=&quot;text-wrap: nowrap;&quot;&gt;has_uhd_version bit default 0&lt;/span&gt;" style="shape=partialRectangle;connectable=0;fillColor=none;top=0;left=0;bottom=0;right=0;align=left;spacingLeft=6;overflow=hidden;whiteSpace=wrap;html=1;" parent="Ti9CZ3-ndMk54ntmwThr-11" vertex="1">
          <mxGeometry x="30" width="296.550048828125" height="35" as="geometry">
            <mxRectangle width="296.550048828125" height="35" as="alternateBounds" />
          </mxGeometry>
        </mxCell>
        <mxCell id="Ti9CZ3-ndMk54ntmwThr-14" value="" style="shape=tableRow;horizontal=0;startSize=0;swimlaneHead=0;swimlaneBody=0;fillColor=none;collapsible=0;dropTarget=0;points=[[0,0.5],[1,0.5]];portConstraint=eastwest;top=0;left=0;right=0;bottom=0;" parent="Ti9CZ3-ndMk54ntmwThr-7" vertex="1">
          <mxGeometry y="95" width="326.550048828125" height="30" as="geometry" />
        </mxCell>
        <mxCell id="Ti9CZ3-ndMk54ntmwThr-15" value="" style="shape=partialRectangle;connectable=0;fillColor=none;top=0;left=0;bottom=0;right=0;editable=1;overflow=hidden;whiteSpace=wrap;html=1;" parent="Ti9CZ3-ndMk54ntmwThr-14" vertex="1">
          <mxGeometry width="30" height="30" as="geometry">
            <mxRectangle width="30" height="30" as="alternateBounds" />
          </mxGeometry>
        </mxCell>
        <mxCell id="Ti9CZ3-ndMk54ntmwThr-16" value="&lt;span style=&quot;text-wrap: nowrap;&quot;&gt;has_hd_version bit default 0&lt;/span&gt;" style="shape=partialRectangle;connectable=0;fillColor=none;top=0;left=0;bottom=0;right=0;align=left;spacingLeft=6;overflow=hidden;whiteSpace=wrap;html=1;" parent="Ti9CZ3-ndMk54ntmwThr-14" vertex="1">
          <mxGeometry x="30" width="296.550048828125" height="30" as="geometry">
            <mxRectangle width="296.550048828125" height="30" as="alternateBounds" />
          </mxGeometry>
        </mxCell>
        <mxCell id="Ti9CZ3-ndMk54ntmwThr-17" value="" style="shape=tableRow;horizontal=0;startSize=0;swimlaneHead=0;swimlaneBody=0;fillColor=none;collapsible=0;dropTarget=0;points=[[0,0.5],[1,0.5]];portConstraint=eastwest;top=0;left=0;right=0;bottom=0;" parent="Ti9CZ3-ndMk54ntmwThr-7" vertex="1">
          <mxGeometry y="125" width="326.550048828125" height="30" as="geometry" />
        </mxCell>
        <mxCell id="Ti9CZ3-ndMk54ntmwThr-18" value="" style="shape=partialRectangle;connectable=0;fillColor=none;top=0;left=0;bottom=0;right=0;editable=1;overflow=hidden;whiteSpace=wrap;html=1;" parent="Ti9CZ3-ndMk54ntmwThr-17" vertex="1">
          <mxGeometry width="30" height="30" as="geometry">
            <mxRectangle width="30" height="30" as="alternateBounds" />
          </mxGeometry>
        </mxCell>
        <mxCell id="Ti9CZ3-ndMk54ntmwThr-19" value="&lt;span style=&quot;text-wrap: nowrap;&quot;&gt;has_sd_version bit default 1&lt;/span&gt;" style="shape=partialRectangle;connectable=0;fillColor=none;top=0;left=0;bottom=0;right=0;align=left;spacingLeft=6;overflow=hidden;whiteSpace=wrap;html=1;" parent="Ti9CZ3-ndMk54ntmwThr-17" vertex="1">
          <mxGeometry x="30" width="296.550048828125" height="30" as="geometry">
            <mxRectangle width="296.550048828125" height="30" as="alternateBounds" />
          </mxGeometry>
        </mxCell>
        <mxCell id="Ti9CZ3-ndMk54ntmwThr-20" value="FK" style="shape=partialRectangle;connectable=0;fillColor=none;top=0;left=0;bottom=0;right=0;editable=1;overflow=hidden;whiteSpace=wrap;html=1;" parent="1" vertex="1">
          <mxGeometry x="22.25" y="1412" width="30" height="30" as="geometry">
            <mxRectangle width="30" height="30" as="alternateBounds" />
          </mxGeometry>
        </mxCell>
        <mxCell id="Ti9CZ3-ndMk54ntmwThr-28" value="" style="fontSize=12;html=1;endArrow=ERmandOne;startArrow=ERmandOne;rounded=0;entryX=0.541;entryY=0.967;entryDx=0;entryDy=0;entryPerimeter=0;exitX=0.5;exitY=0;exitDx=0;exitDy=0;" parent="1" source="Ti9CZ3-ndMk54ntmwThr-7" target="XaDpsOBtemNNsNq5cKj4-31" edge="1">
          <mxGeometry width="100" height="100" relative="1" as="geometry">
            <mxPoint x="305" y="1653" as="sourcePoint" />
            <mxPoint x="405" y="1553" as="targetPoint" />
          </mxGeometry>
        </mxCell>
        <mxCell id="9qATlSkGq3Nvm-7I5iyI-1" value="Logs" style="shape=table;startSize=29;container=1;collapsible=1;childLayout=tableLayout;fixedRows=1;rowLines=0;fontStyle=1;align=center;resizeLast=1;html=1;" parent="1" vertex="1">
          <mxGeometry x="-412" y="-725" width="250" height="89" as="geometry" />
        </mxCell>
        <mxCell id="9qATlSkGq3Nvm-7I5iyI-11" value="" style="shape=tableRow;horizontal=0;startSize=0;swimlaneHead=0;swimlaneBody=0;fillColor=none;collapsible=0;dropTarget=0;points=[[0,0.5],[1,0.5]];portConstraint=eastwest;top=0;left=0;right=0;bottom=0;" parent="9qATlSkGq3Nvm-7I5iyI-1" vertex="1">
          <mxGeometry y="29" width="250" height="30" as="geometry" />
        </mxCell>
        <mxCell id="9qATlSkGq3Nvm-7I5iyI-12" value="" style="shape=partialRectangle;connectable=0;fillColor=none;top=0;left=0;bottom=0;right=0;editable=1;overflow=hidden;whiteSpace=wrap;html=1;" parent="9qATlSkGq3Nvm-7I5iyI-11" vertex="1">
          <mxGeometry width="30" height="30" as="geometry">
            <mxRectangle width="30" height="30" as="alternateBounds" />
          </mxGeometry>
        </mxCell>
        <mxCell id="9qATlSkGq3Nvm-7I5iyI-13" value="message varchar(255) not null" style="shape=partialRectangle;connectable=0;fillColor=none;top=0;left=0;bottom=0;right=0;align=left;spacingLeft=6;overflow=hidden;whiteSpace=wrap;html=1;" parent="9qATlSkGq3Nvm-7I5iyI-11" vertex="1">
          <mxGeometry x="30" width="220" height="30" as="geometry">
            <mxRectangle width="220" height="30" as="alternateBounds" />
          </mxGeometry>
        </mxCell>
        <mxCell id="9qATlSkGq3Nvm-7I5iyI-17" value="" style="shape=tableRow;horizontal=0;startSize=0;swimlaneHead=0;swimlaneBody=0;fillColor=none;collapsible=0;dropTarget=0;points=[[0,0.5],[1,0.5]];portConstraint=eastwest;top=0;left=0;right=0;bottom=1;" parent="9qATlSkGq3Nvm-7I5iyI-1" vertex="1">
          <mxGeometry y="59" width="250" height="30" as="geometry" />
        </mxCell>
        <mxCell id="9qATlSkGq3Nvm-7I5iyI-18" value="PK" style="shape=partialRectangle;connectable=0;fillColor=none;top=0;left=0;bottom=0;right=0;fontStyle=1;overflow=hidden;whiteSpace=wrap;html=1;" parent="9qATlSkGq3Nvm-7I5iyI-17" vertex="1">
          <mxGeometry width="30" height="30" as="geometry">
            <mxRectangle width="30" height="30" as="alternateBounds" />
          </mxGeometry>
        </mxCell>
        <mxCell id="9qATlSkGq3Nvm-7I5iyI-19" value="date datime not null" style="shape=partialRectangle;connectable=0;fillColor=none;top=0;left=0;bottom=0;right=0;align=left;spacingLeft=6;fontStyle=5;overflow=hidden;whiteSpace=wrap;html=1;" parent="9qATlSkGq3Nvm-7I5iyI-17" vertex="1">
          <mxGeometry x="30" width="220" height="30" as="geometry">
            <mxRectangle width="220" height="30" as="alternateBounds" />
          </mxGeometry>
        </mxCell>
        <mxCell id="9qATlSkGq3Nvm-7I5iyI-20" value="Tokens" style="shape=table;startSize=30;container=1;collapsible=1;childLayout=tableLayout;fixedRows=1;rowLines=0;fontStyle=1;align=center;resizeLast=1;html=1;" parent="1" vertex="1">
          <mxGeometry x="-434" y="-434" width="210.7916564941408" height="116.29170735677093" as="geometry" />
        </mxCell>
        <mxCell id="9qATlSkGq3Nvm-7I5iyI-21" value="" style="shape=tableRow;horizontal=0;startSize=0;swimlaneHead=0;swimlaneBody=0;fillColor=none;collapsible=0;dropTarget=0;points=[[0,0.5],[1,0.5]];portConstraint=eastwest;top=0;left=0;right=0;bottom=1;" parent="9qATlSkGq3Nvm-7I5iyI-20" vertex="1">
          <mxGeometry y="30" width="210.7916564941408" height="30" as="geometry" />
        </mxCell>
        <mxCell id="9qATlSkGq3Nvm-7I5iyI-22" value="PK" style="shape=partialRectangle;connectable=0;fillColor=none;top=0;left=0;bottom=0;right=0;fontStyle=1;overflow=hidden;whiteSpace=wrap;html=1;" parent="9qATlSkGq3Nvm-7I5iyI-21" vertex="1">
          <mxGeometry width="30" height="30" as="geometry">
            <mxRectangle width="30" height="30" as="alternateBounds" />
          </mxGeometry>
        </mxCell>
        <mxCell id="9qATlSkGq3Nvm-7I5iyI-23" value="account_id int(11) not null" style="shape=partialRectangle;connectable=0;fillColor=none;top=0;left=0;bottom=0;right=0;align=left;spacingLeft=6;fontStyle=5;overflow=hidden;whiteSpace=wrap;html=1;" parent="9qATlSkGq3Nvm-7I5iyI-21" vertex="1">
          <mxGeometry x="30" width="180.7916564941408" height="30" as="geometry">
            <mxRectangle width="180.7916564941408" height="30" as="alternateBounds" />
          </mxGeometry>
        </mxCell>
        <mxCell id="9qATlSkGq3Nvm-7I5iyI-24" value="" style="shape=tableRow;horizontal=0;startSize=0;swimlaneHead=0;swimlaneBody=0;fillColor=none;collapsible=0;dropTarget=0;points=[[0,0.5],[1,0.5]];portConstraint=eastwest;top=0;left=0;right=0;bottom=0;" parent="9qATlSkGq3Nvm-7I5iyI-20" vertex="1">
          <mxGeometry y="60" width="210.7916564941408" height="56" as="geometry" />
        </mxCell>
        <mxCell id="9qATlSkGq3Nvm-7I5iyI-25" value="" style="shape=partialRectangle;connectable=0;fillColor=none;top=0;left=0;bottom=0;right=0;editable=1;overflow=hidden;whiteSpace=wrap;html=1;" parent="9qATlSkGq3Nvm-7I5iyI-24" vertex="1">
          <mxGeometry width="30" height="56" as="geometry">
            <mxRectangle width="30" height="56" as="alternateBounds" />
          </mxGeometry>
        </mxCell>
        <mxCell id="9qATlSkGq3Nvm-7I5iyI-26" value="token varchar(255) not null" style="shape=partialRectangle;connectable=0;fillColor=none;top=0;left=0;bottom=0;right=0;align=left;spacingLeft=6;overflow=hidden;whiteSpace=wrap;html=1;" parent="9qATlSkGq3Nvm-7I5iyI-24" vertex="1">
          <mxGeometry x="30" width="180.7916564941408" height="56" as="geometry">
            <mxRectangle width="180.7916564941408" height="56" as="alternateBounds" />
          </mxGeometry>
        </mxCell>
        <mxCell id="uQ3p3v3V1UWW3RZAFGhy-14" value="" style="edgeStyle=entityRelationEdgeStyle;fontSize=12;html=1;endArrow=ERoneToMany;startArrow=ERmandOne;rounded=0;" edge="1" parent="1" source="9qATlSkGq3Nvm-7I5iyI-24" target="C-vyLk0tnHw3VtMMgP7b-24">
          <mxGeometry width="100" height="100" relative="1" as="geometry">
            <mxPoint x="-285" y="-349" as="sourcePoint" />
            <mxPoint x="-185" y="-449" as="targetPoint" />
          </mxGeometry>
        </mxCell>
        <mxCell id="uQ3p3v3V1UWW3RZAFGhy-15" value="cache" style="shape=table;startSize=30;container=1;collapsible=1;childLayout=tableLayout;fixedRows=1;rowLines=0;fontStyle=1;align=center;resizeLast=1;html=1;" vertex="1" parent="1">
          <mxGeometry x="-662" y="-755.5" width="215" height="120" as="geometry" />
        </mxCell>
        <mxCell id="uQ3p3v3V1UWW3RZAFGhy-16" value="" style="shape=tableRow;horizontal=0;startSize=0;swimlaneHead=0;swimlaneBody=0;fillColor=none;collapsible=0;dropTarget=0;points=[[0,0.5],[1,0.5]];portConstraint=eastwest;top=0;left=0;right=0;bottom=1;" vertex="1" parent="uQ3p3v3V1UWW3RZAFGhy-15">
          <mxGeometry y="30" width="215" height="30" as="geometry" />
        </mxCell>
        <mxCell id="uQ3p3v3V1UWW3RZAFGhy-17" value="PK" style="shape=partialRectangle;connectable=0;fillColor=none;top=0;left=0;bottom=0;right=0;fontStyle=1;overflow=hidden;whiteSpace=wrap;html=1;" vertex="1" parent="uQ3p3v3V1UWW3RZAFGhy-16">
          <mxGeometry width="30" height="30" as="geometry">
            <mxRectangle width="30" height="30" as="alternateBounds" />
          </mxGeometry>
        </mxCell>
        <mxCell id="uQ3p3v3V1UWW3RZAFGhy-18" value="key varchar(255) not null" style="shape=partialRectangle;connectable=0;fillColor=none;top=0;left=0;bottom=0;right=0;align=left;spacingLeft=6;fontStyle=5;overflow=hidden;whiteSpace=wrap;html=1;" vertex="1" parent="uQ3p3v3V1UWW3RZAFGhy-16">
          <mxGeometry x="30" width="185" height="30" as="geometry">
            <mxRectangle width="185" height="30" as="alternateBounds" />
          </mxGeometry>
        </mxCell>
        <mxCell id="uQ3p3v3V1UWW3RZAFGhy-19" value="" style="shape=tableRow;horizontal=0;startSize=0;swimlaneHead=0;swimlaneBody=0;fillColor=none;collapsible=0;dropTarget=0;points=[[0,0.5],[1,0.5]];portConstraint=eastwest;top=0;left=0;right=0;bottom=0;" vertex="1" parent="uQ3p3v3V1UWW3RZAFGhy-15">
          <mxGeometry y="60" width="215" height="30" as="geometry" />
        </mxCell>
        <mxCell id="uQ3p3v3V1UWW3RZAFGhy-20" value="" style="shape=partialRectangle;connectable=0;fillColor=none;top=0;left=0;bottom=0;right=0;editable=1;overflow=hidden;whiteSpace=wrap;html=1;" vertex="1" parent="uQ3p3v3V1UWW3RZAFGhy-19">
          <mxGeometry width="30" height="30" as="geometry">
            <mxRectangle width="30" height="30" as="alternateBounds" />
          </mxGeometry>
        </mxCell>
        <mxCell id="uQ3p3v3V1UWW3RZAFGhy-21" value="owner varchar(255) not null" style="shape=partialRectangle;connectable=0;fillColor=none;top=0;left=0;bottom=0;right=0;align=left;spacingLeft=6;overflow=hidden;whiteSpace=wrap;html=1;" vertex="1" parent="uQ3p3v3V1UWW3RZAFGhy-19">
          <mxGeometry x="30" width="185" height="30" as="geometry">
            <mxRectangle width="185" height="30" as="alternateBounds" />
          </mxGeometry>
        </mxCell>
        <mxCell id="uQ3p3v3V1UWW3RZAFGhy-22" value="" style="shape=tableRow;horizontal=0;startSize=0;swimlaneHead=0;swimlaneBody=0;fillColor=none;collapsible=0;dropTarget=0;points=[[0,0.5],[1,0.5]];portConstraint=eastwest;top=0;left=0;right=0;bottom=0;" vertex="1" parent="uQ3p3v3V1UWW3RZAFGhy-15">
          <mxGeometry y="90" width="215" height="30" as="geometry" />
        </mxCell>
        <mxCell id="uQ3p3v3V1UWW3RZAFGhy-23" value="" style="shape=partialRectangle;connectable=0;fillColor=none;top=0;left=0;bottom=0;right=0;editable=1;overflow=hidden;whiteSpace=wrap;html=1;" vertex="1" parent="uQ3p3v3V1UWW3RZAFGhy-22">
          <mxGeometry width="30" height="30" as="geometry">
            <mxRectangle width="30" height="30" as="alternateBounds" />
          </mxGeometry>
        </mxCell>
        <mxCell id="uQ3p3v3V1UWW3RZAFGhy-24" value="expiration int(11) not null" style="shape=partialRectangle;connectable=0;fillColor=none;top=0;left=0;bottom=0;right=0;align=left;spacingLeft=6;overflow=hidden;whiteSpace=wrap;html=1;" vertex="1" parent="uQ3p3v3V1UWW3RZAFGhy-22">
          <mxGeometry x="30" width="185" height="30" as="geometry">
            <mxRectangle width="185" height="30" as="alternateBounds" />
          </mxGeometry>
        </mxCell>
        <mxCell id="uQ3p3v3V1UWW3RZAFGhy-28" value="cache_locks" style="shape=table;startSize=30;container=1;collapsible=1;childLayout=tableLayout;fixedRows=1;rowLines=0;fontStyle=1;align=center;resizeLast=1;html=1;" vertex="1" parent="1">
          <mxGeometry x="-662" y="-593" width="215" height="120" as="geometry" />
        </mxCell>
        <mxCell id="uQ3p3v3V1UWW3RZAFGhy-29" value="" style="shape=tableRow;horizontal=0;startSize=0;swimlaneHead=0;swimlaneBody=0;fillColor=none;collapsible=0;dropTarget=0;points=[[0,0.5],[1,0.5]];portConstraint=eastwest;top=0;left=0;right=0;bottom=1;" vertex="1" parent="uQ3p3v3V1UWW3RZAFGhy-28">
          <mxGeometry y="30" width="215" height="30" as="geometry" />
        </mxCell>
        <mxCell id="uQ3p3v3V1UWW3RZAFGhy-30" value="PK" style="shape=partialRectangle;connectable=0;fillColor=none;top=0;left=0;bottom=0;right=0;fontStyle=1;overflow=hidden;whiteSpace=wrap;html=1;" vertex="1" parent="uQ3p3v3V1UWW3RZAFGhy-29">
          <mxGeometry width="30" height="30" as="geometry">
            <mxRectangle width="30" height="30" as="alternateBounds" />
          </mxGeometry>
        </mxCell>
        <mxCell id="uQ3p3v3V1UWW3RZAFGhy-31" value="key varchar(255) not null" style="shape=partialRectangle;connectable=0;fillColor=none;top=0;left=0;bottom=0;right=0;align=left;spacingLeft=6;fontStyle=5;overflow=hidden;whiteSpace=wrap;html=1;" vertex="1" parent="uQ3p3v3V1UWW3RZAFGhy-29">
          <mxGeometry x="30" width="185" height="30" as="geometry">
            <mxRectangle width="185" height="30" as="alternateBounds" />
          </mxGeometry>
        </mxCell>
        <mxCell id="uQ3p3v3V1UWW3RZAFGhy-32" value="" style="shape=tableRow;horizontal=0;startSize=0;swimlaneHead=0;swimlaneBody=0;fillColor=none;collapsible=0;dropTarget=0;points=[[0,0.5],[1,0.5]];portConstraint=eastwest;top=0;left=0;right=0;bottom=0;" vertex="1" parent="uQ3p3v3V1UWW3RZAFGhy-28">
          <mxGeometry y="60" width="215" height="30" as="geometry" />
        </mxCell>
        <mxCell id="uQ3p3v3V1UWW3RZAFGhy-33" value="" style="shape=partialRectangle;connectable=0;fillColor=none;top=0;left=0;bottom=0;right=0;editable=1;overflow=hidden;whiteSpace=wrap;html=1;" vertex="1" parent="uQ3p3v3V1UWW3RZAFGhy-32">
          <mxGeometry width="30" height="30" as="geometry">
            <mxRectangle width="30" height="30" as="alternateBounds" />
          </mxGeometry>
        </mxCell>
        <mxCell id="uQ3p3v3V1UWW3RZAFGhy-34" value="owner varchar(255) not null" style="shape=partialRectangle;connectable=0;fillColor=none;top=0;left=0;bottom=0;right=0;align=left;spacingLeft=6;overflow=hidden;whiteSpace=wrap;html=1;" vertex="1" parent="uQ3p3v3V1UWW3RZAFGhy-32">
          <mxGeometry x="30" width="185" height="30" as="geometry">
            <mxRectangle width="185" height="30" as="alternateBounds" />
          </mxGeometry>
        </mxCell>
        <mxCell id="uQ3p3v3V1UWW3RZAFGhy-35" value="" style="shape=tableRow;horizontal=0;startSize=0;swimlaneHead=0;swimlaneBody=0;fillColor=none;collapsible=0;dropTarget=0;points=[[0,0.5],[1,0.5]];portConstraint=eastwest;top=0;left=0;right=0;bottom=0;" vertex="1" parent="uQ3p3v3V1UWW3RZAFGhy-28">
          <mxGeometry y="90" width="215" height="30" as="geometry" />
        </mxCell>
        <mxCell id="uQ3p3v3V1UWW3RZAFGhy-36" value="" style="shape=partialRectangle;connectable=0;fillColor=none;top=0;left=0;bottom=0;right=0;editable=1;overflow=hidden;whiteSpace=wrap;html=1;" vertex="1" parent="uQ3p3v3V1UWW3RZAFGhy-35">
          <mxGeometry width="30" height="30" as="geometry">
            <mxRectangle width="30" height="30" as="alternateBounds" />
          </mxGeometry>
        </mxCell>
        <mxCell id="uQ3p3v3V1UWW3RZAFGhy-37" value="expiration int(11) not null" style="shape=partialRectangle;connectable=0;fillColor=none;top=0;left=0;bottom=0;right=0;align=left;spacingLeft=6;overflow=hidden;whiteSpace=wrap;html=1;" vertex="1" parent="uQ3p3v3V1UWW3RZAFGhy-35">
          <mxGeometry x="30" width="185" height="30" as="geometry">
            <mxRectangle width="185" height="30" as="alternateBounds" />
          </mxGeometry>
        </mxCell>
        <mxCell id="uQ3p3v3V1UWW3RZAFGhy-38" value="Api_Keys" style="shape=table;startSize=30;container=1;collapsible=1;childLayout=tableLayout;fixedRows=1;rowLines=0;fontStyle=1;align=center;resizeLast=1;html=1;" vertex="1" parent="1">
          <mxGeometry x="-934" y="-764" width="215" height="90" as="geometry" />
        </mxCell>
        <mxCell id="uQ3p3v3V1UWW3RZAFGhy-39" value="" style="shape=tableRow;horizontal=0;startSize=0;swimlaneHead=0;swimlaneBody=0;fillColor=none;collapsible=0;dropTarget=0;points=[[0,0.5],[1,0.5]];portConstraint=eastwest;top=0;left=0;right=0;bottom=1;" vertex="1" parent="uQ3p3v3V1UWW3RZAFGhy-38">
          <mxGeometry y="30" width="215" height="30" as="geometry" />
        </mxCell>
        <mxCell id="uQ3p3v3V1UWW3RZAFGhy-40" value="PK" style="shape=partialRectangle;connectable=0;fillColor=none;top=0;left=0;bottom=0;right=0;fontStyle=1;overflow=hidden;whiteSpace=wrap;html=1;" vertex="1" parent="uQ3p3v3V1UWW3RZAFGhy-39">
          <mxGeometry width="30" height="30" as="geometry">
            <mxRectangle width="30" height="30" as="alternateBounds" />
          </mxGeometry>
        </mxCell>
        <mxCell id="uQ3p3v3V1UWW3RZAFGhy-41" value="api_key varchar(255) not null" style="shape=partialRectangle;connectable=0;fillColor=none;top=0;left=0;bottom=0;right=0;align=left;spacingLeft=6;fontStyle=5;overflow=hidden;whiteSpace=wrap;html=1;" vertex="1" parent="uQ3p3v3V1UWW3RZAFGhy-39">
          <mxGeometry x="30" width="185" height="30" as="geometry">
            <mxRectangle width="185" height="30" as="alternateBounds" />
          </mxGeometry>
        </mxCell>
        <mxCell id="uQ3p3v3V1UWW3RZAFGhy-42" value="" style="shape=tableRow;horizontal=0;startSize=0;swimlaneHead=0;swimlaneBody=0;fillColor=none;collapsible=0;dropTarget=0;points=[[0,0.5],[1,0.5]];portConstraint=eastwest;top=0;left=0;right=0;bottom=0;" vertex="1" parent="uQ3p3v3V1UWW3RZAFGhy-38">
          <mxGeometry y="60" width="215" height="30" as="geometry" />
        </mxCell>
        <mxCell id="uQ3p3v3V1UWW3RZAFGhy-43" value="" style="shape=partialRectangle;connectable=0;fillColor=none;top=0;left=0;bottom=0;right=0;editable=1;overflow=hidden;whiteSpace=wrap;html=1;" vertex="1" parent="uQ3p3v3V1UWW3RZAFGhy-42">
          <mxGeometry width="30" height="30" as="geometry">
            <mxRectangle width="30" height="30" as="alternateBounds" />
          </mxGeometry>
        </mxCell>
        <mxCell id="uQ3p3v3V1UWW3RZAFGhy-44" value="expire_at datetime not null" style="shape=partialRectangle;connectable=0;fillColor=none;top=0;left=0;bottom=0;right=0;align=left;spacingLeft=6;overflow=hidden;whiteSpace=wrap;html=1;" vertex="1" parent="uQ3p3v3V1UWW3RZAFGhy-42">
          <mxGeometry x="30" width="185" height="30" as="geometry">
            <mxRectangle width="185" height="30" as="alternateBounds" />
          </mxGeometry>
        </mxCell>
      </root>
    </mxGraphModel>
  </diagram>
</mxfile>
